<?xml version="1.0" standalone="no"?>
<!DOCTYPE svg PUBLIC "-//W3C//DTD SVG 1.1//EN" "http://www.w3.org/Graphics/SVG/1.1/DTD/svg11.dtd" >
<svg xmlns="http://www.w3.org/2000/svg">
<metadata>Generated by IcoMoon</metadata>
<defs>
<font id="rcp" horiz-adv-x="1024">
<font-face units-per-em="1024" ascent="960" descent="-64" />
<missing-glyph horiz-adv-x="1024" />
<glyph unicode="&#x20;" horiz-adv-x="512" d="" />
<glyph unicode="&#xe800;" glyph-name="close" d="M967.111-64c-15.708 0.003-29.928 6.373-40.22 16.668l-910.222 910.222c-10.291 10.294-16.656 24.514-16.656 40.22s6.365 29.926 16.656 40.221v0c10.294 10.291 24.514 16.656 40.22 16.656s29.926-6.365 40.221-16.656l910.222-910.222c10.291-10.294 16.656-24.514 16.656-40.22 0-31.415-25.463-56.882-56.876-56.889h-0.001zM56.889-64c-15.708 0.003-29.928 6.373-40.22 16.668v0c-10.291 10.294-16.656 24.514-16.656 40.22s6.365 29.926 16.656 40.221l910.222 910.222c10.294 10.291 24.514 16.656 40.22 16.656s29.926-6.365 40.221-16.656v0c10.291-10.294 16.656-24.514 16.656-40.22s-6.365-29.926-16.656-40.221l-910.222-910.222c-10.293-10.296-24.512-16.665-40.22-16.668h-0.001z" />
<glyph unicode="&#xe801;" glyph-name="app" d="M298.705 960h-128.038c-94.257 0-170.667-76.41-170.667-170.667v0-128.038c0.029-94.235 76.428-170.616 170.667-170.616h128.038c94.217 0.029 170.587 76.399 170.616 170.613v128.041c0 94.239-76.381 170.638-170.613 170.667h-0.003zM384.013 661.295c0-47.114-38.194-85.308-85.308-85.308v0h-128.038c-0.015 0-0.033 0-0.051 0-47.114 0-85.308 38.194-85.308 85.308v0 128.038c0 47.114 38.194 85.308 85.308 85.308 0.018 0 0.036 0 0.053 0h128.035c47.114 0 85.308-38.194 85.308-85.308v0zM853.384 960h-128.038c-94.257 0-170.667-76.41-170.667-170.667v0-128.038c0.029-94.235 76.428-170.616 170.667-170.616h128.038c94.217 0.029 170.587 76.399 170.616 170.613v128.041c0 94.239-76.381 170.638-170.613 170.667h-0.003zM938.692 661.295c0-47.114-38.194-85.308-85.308-85.308v0h-128.038c-0.015 0-0.033 0-0.051 0-47.114 0-85.308 38.194-85.308 85.308v0 128.038c0 0.015 0 0.033 0 0.051 0 47.114 38.194 85.308 85.308 85.308h128.089c47.114 0 85.308-38.194 85.308-85.308 0-0.018 0-0.036 0-0.053v0.003zM298.705 405.321h-128.038c-94.257 0-170.667-76.41-170.667-170.667v0-128.038c0.029-94.235 76.428-170.616 170.667-170.616h128.038c94.217 0.029 170.587 76.399 170.616 170.613v128.041c0 94.239-76.381 170.638-170.613 170.667h-0.003zM384.013 106.616c0-47.114-38.194-85.308-85.308-85.308v0h-128.038c-0.015 0-0.033 0-0.051 0-47.114 0-85.308 38.194-85.308 85.308v0 128.038c0 0.015 0 0.033 0 0.051 0 47.114 38.194 85.308 85.308 85.308h128.089c47.114 0 85.308-38.194 85.308-85.308 0-0.018 0-0.036 0-0.053v0.003zM853.384 405.321h-128.038c-94.257 0-170.667-76.41-170.667-170.667v0-128.038c0-94.257 76.41-170.667 170.667-170.667v0h128.038c94.235 0.029 170.616 76.428 170.616 170.667v0 128.038c0 94.239-76.381 170.638-170.613 170.667h-0.003zM938.692 106.616c0-47.114-38.194-85.308-85.308-85.308v0h-128.038c-0.015 0-0.033 0-0.051 0-47.114 0-85.308 38.194-85.308 85.308v0 128.038c0 0.015 0 0.033 0 0.051 0 47.114 38.194 85.308 85.308 85.308h128.089c47.114 0 85.308-38.194 85.308-85.308 0-0.018 0-0.036 0-0.053v0.003z" />
<glyph unicode="&#xe802;" glyph-name="bulb" horiz-adv-x="768" d="M639.886 862.339c-67.636 60.795-157.561 97.976-256.171 97.976-212.014 0-383.886-171.872-383.886-383.886 0-111.038 47.143-211.065 122.506-281.158l0.236-0.217c54.497-47.881 89.253-117.099 91.124-194.466l0.006-0.325v-6.873c0.086-86.91 70.517-157.341 157.419-157.427h26.588c86.91 0.086 157.341 70.517 157.427 157.419v23.55c1.39 68.635 33.017 129.612 82.062 170.341l0.373 0.301c80.423 70.689 130.907 173.775 130.907 288.653 0 113.63-49.394 215.724-127.883 285.981l-0.366 0.322zM397.404 21.283h-26.58c-39.844 0-72.145 32.3-72.145 72.145v0s-0.304 11.088-0.342 13.214h170.869v-13.214c0-39.844-32.3-72.145-72.145-72.145v0zM580.841 351.63c-47.458-41.308-82.69-95.52-100.288-157.171l-0.563-2.307h-53.159v306.274c49.967 18.045 85.082 64.961 85.321 120.111v0.029c0.012 0.379 0.019 0.825 0.019 1.273 0 23.571-19.108 42.679-42.679 42.679s-42.679-19.108-42.679-42.679c0-0.448 0.007-0.894 0.021-1.338l-0.002 0.065c0.012-0.379 0.019-0.825 0.019-1.273 0-23.571-19.108-42.679-42.679-42.679s-42.679 19.108-42.679 42.679c0 0.448 0.007 0.894 0.021 1.338l-0.002-0.065c0.012 0.379 0.019 0.825 0.019 1.273 0 23.571-19.108 42.679-42.679 42.679s-42.679-19.108-42.679-42.679c0-0.448 0.007-0.894 0.021-1.338l-0.002 0.065c0.238-55.179 35.354-102.095 84.429-119.858l0.891-0.282v-306.501h-56.539c-20.298 65.833-56.47 121.767-104.137 165.336l-0.283 0.255c-58.529 54.666-95.009 132.298-95.009 218.45 0 152.613 114.475 278.489 262.241 296.445l1.435 0.142c10.594 1.255 22.868 1.972 35.309 1.974h0.004c0.235 0.001 0.513 0.001 0.791 0.001 76.153 0 145.573-28.83 197.939-76.171l-0.256 0.228c61.367-54.882 99.811-134.298 99.811-222.693 0-89.268-39.207-169.379-101.34-224.053l-0.331-0.285z" />
<glyph unicode="&#xe803;" glyph-name="calendar" d="M810.708 874.683h-42.658v42.658c0 23.56-19.099 42.658-42.658 42.658s-42.658-19.099-42.658-42.658v0-42.658h-341.417v42.658c0 23.56-19.099 42.658-42.658 42.658s-42.658-19.099-42.658-42.658v0-42.658h-42.658c-117.768-0.142-213.2-95.574-213.342-213.328v-512.063c0.171-117.747 95.591-213.15 213.328-213.292h597.38c117.729 0.17 213.121 95.562 213.292 213.275v512.067c-0.142 117.75-95.545 213.171-213.275 213.342h-0.017zM85.317 661.342c0.029 70.685 57.336 127.975 128.025 127.975h597.367c70.706 0 128.025-57.319 128.025-128.025v0-42.658h-853.417zM810.708 21.317h-597.367c-70.689 0-127.996 57.29-128.025 127.972v384.028h853.367v-384.025c-0.029-70.667-57.308-127.947-127.972-127.975h-0.003zM575.988 319.975c0-35.339-28.648-63.988-63.988-63.988s-63.988 28.648-63.988 63.988c0 35.339 28.648 63.988 63.988 63.988s63.988-28.648 63.988-63.988zM362.646 319.975c0-35.339-28.648-63.988-63.988-63.988s-63.988 28.648-63.988 63.988c0 35.339 28.648 63.988 63.988 63.988s63.988-28.648 63.988-63.988zM789.329 319.975c0-35.339-28.648-63.988-63.988-63.988s-63.988 28.648-63.988 63.988c0 35.339 28.648 63.988 63.988 63.988s63.988-28.648 63.988-63.988z" />
<glyph unicode="&#xe804;" glyph-name="camera" horiz-adv-x="1135" d="M989.276 780.993h-128.917l-39.663 111.655c-12.202 32.464-42.989 55.145-79.073 55.145-2.354 0-4.685-0.097-6.99-0.286l0.302 0.020h-334.864c-1.993 0.168-4.312 0.263-6.654 0.263-36.092 0-66.888-22.678-78.915-54.562l-0.192-0.581-39.663-111.655h-128.917c-74.496-2.436-133.961-63.412-133.961-138.277 0-4.909 0.256-9.759 0.755-14.536l-0.051 0.597v-542.259c-0.347-3.517-0.545-7.603-0.545-11.734 0-69.876 56.646-126.522 126.522-126.522 2.561 0 5.105 0.076 7.628 0.226l-0.348-0.017h843.497c2.191-0.135 4.752-0.213 7.331-0.213 69.876 0 126.522 56.646 126.522 126.522 0 4.133-0.198 8.219-0.585 12.25l0.040-0.513v542.259c0.448 4.18 0.704 9.030 0.704 13.939 0 74.865-59.465 135.84-133.738 138.271l-0.223 0.006zM1067.055 86.469c0.319-2.582 0.502-5.571 0.502-8.603 0-40.89-33.148-74.037-74.037-74.037-1.493 0-2.975 0.044-4.446 0.131l0.203-0.010h-843.547c-1.268-0.078-2.751-0.122-4.243-0.122-40.89 0-74.037 33.148-74.037 74.037 0 3.032 0.182 6.021 0.536 8.957l-0.035-0.354v542.308c0 49.89 27.939 96.737 77.779 96.737h150.619c0.869-0.097 1.877-0.153 2.898-0.153 11.64 0 21.593 7.221 25.624 17.428l0.065 0.187 46.747 133.956c4.091 12.323 15.616 14.967 28.587 14.967h334.914c1.081 0.154 2.33 0.242 3.599 0.242 11.273 0 20.926-6.937 24.923-16.775l0.065-0.18 46.498-134.355c4.091-12.273 15.616-15.416 28.587-15.416h150.619c49.89 0 77.779-46.947 77.779-96.737zM567.503 688.995c-166.369 0-301.238-134.869-301.238-301.238s134.869-301.238 301.238-301.238c166.299 0 301.124 134.755 301.238 301.027v0.011c-0.114 166.364-134.89 301.211-301.216 301.438h-0.022zM567.503 146.737c-0.015 0-0.032 0-0.050 0-133.112 0-241.020 107.909-241.020 241.020s107.909 241.020 241.020 241.020c133.094 0 240.992-107.88 241.020-240.968v-0.003c-0.113-133.059-107.92-240.9-240.954-241.070h-0.016z" />
<glyph unicode="&#xe805;" glyph-name="dots" horiz-adv-x="190" d="M189.63 865.185c0-52.365-42.45-94.815-94.815-94.815s-94.815 42.45-94.815 94.815c0 52.365 42.45 94.815 94.815 94.815s94.815-42.45 94.815-94.815zM189.63 448c0-52.365-42.45-94.815-94.815-94.815s-94.815 42.45-94.815 94.815c0 52.365 42.45 94.815 94.815 94.815s94.815-42.45 94.815-94.815zM189.63 30.815c0-52.365-42.45-94.815-94.815-94.815s-94.815 42.45-94.815 94.815c0 52.365 42.45 94.815 94.815 94.815s94.815-42.45 94.815-94.815z" />
<glyph unicode="&#xe806;" glyph-name="download" d="M874.031-64h-724.061c-1.433-0.051-3.117-0.080-4.807-0.080-78.277 0-142.093 61.911-145.153 139.438l-0.009 0.278v186.182c0 25.706 20.839 46.545 46.545 46.545s46.545-20.839 46.545-46.545v0-186.182c3.018-26.42 25.249-46.752 52.229-46.752 1.637 0 3.256 0.075 4.855 0.221l-0.205-0.015h724.061c1.393-0.131 3.013-0.206 4.65-0.206 26.98 0 49.211 20.332 52.206 46.509l0.023 0.242v186.182c0 25.706 20.839 46.545 46.545 46.545s46.545-20.839 46.545-46.545v0-186.182c-3.069-77.804-66.885-139.716-145.162-139.716-1.691 0-3.374 0.029-5.051 0.086l0.244-0.007zM512 258.234c-11.368 0.005-21.782 4.085-29.861 10.858l0.072-0.059-279.273 232.727c-9.767 8.576-15.898 21.088-15.898 35.032 0 25.706 20.839 46.545 46.545 46.545 10.977 0 21.066-3.8 29.024-10.155l-0.093 0.072 249.484-207.965 249.484 207.919c7.865 6.284 17.954 10.083 28.931 10.083 25.706 0 46.545-20.839 46.545-46.545 0-13.944-6.132-26.456-15.846-34.987l-0.053-0.045-279.273-232.727c-8.004-6.69-18.405-10.752-29.754-10.752-0.012 0-0.025 0-0.037 0h0.002zM512 308.364c-25.706 0-46.545 20.839-46.545 46.545v0 558.545c0 25.706 20.839 46.545 46.545 46.545v0c25.706 0 46.545-20.839 46.545-46.545v0-558.545c0-25.706-20.839-46.545-46.545-46.545v0z" />
<glyph unicode="&#xe807;" glyph-name="edit" d="M976.133 823.939l-88.194 88.376c-22.567 22.562-53.74 36.516-88.172 36.516s-65.605-13.954-88.172-36.516l-535.343-535.524c-24.342-24.342-98.821-118.531-98.867-150.457l-62.354-275.301 275.21 62.354c58.247 33.67 107.388 66.341 154.411 101.678l-3.908-2.812 535.388 535.343c22.562 22.567 36.516 53.74 36.516 88.172s-13.954 65.605-36.516 88.172v0zM97.686 33.686l40.509 178.887c0.512 2.154 0.945 4.785 1.206 7.467l0.020 0.254c0 0.363 0.454 0.908 0.59 1.272l140.784-141.011-14.124-8.538zM396.784 156.304c-17.767-14.002-37.774-27.92-58.589-40.644l-2.72-1.546-161.493 161.72c15.124 21.154 30.324 39.696 46.631 57.193l-0.308-0.334 403.278 403.097 176.162-176.343zM932.036 691.693l-88.194-88.194-176.343 176.343 88.194 88.149c11.277 11.285 26.861 18.266 44.075 18.266s32.797-6.981 44.074-18.265l88.149-88.149c11.263-11.287 18.228-26.868 18.228-44.075s-6.965-32.787-18.229-44.076l0.001 0.001zM799.745 960c0.141 0.001 0.308 0.001 0.475 0.001 37.454 0 71.353-15.225 95.844-39.824l0.005-0.005 88.104-88.194c24.565-24.64 39.754-58.64 39.754-96.187s-15.189-71.547-39.757-96.191l-535.385-535.34c-43.938-33.394-93.826-66.654-145.718-96.847l-7.056-3.79-1.544-0.908-294.466-66.804 66.078 291.741c1.953 39.737 81.428 136.243 102.137 157.042l535.343 535.479c24.489 24.603 58.381 39.829 95.829 39.829 0.126 0 0.252 0 0.378-0.001h-0.019zM286.019 24.058c56.632 32.39 104.584 64.203 150.335 98.775l-3.511-2.542 535.252 535.343c20.457 20.531 33.106 48.855 33.106 80.133s-12.648 59.602-33.109 80.137l-88.146 88.191c-20.533 20.471-48.867 33.128-80.156 33.128s-59.623-12.657-80.159-33.131l-535.385-535.34c-26.159-26.204-95.37-116.896-95.37-142.464v-1.272l-58.63-258.861zM799.745 897.646c0.054 0 0.119 0 0.184 0 20.298 0 38.67-8.246 51.95-21.57l88.196-88.196c13.324-13.343 21.563-31.766 21.563-52.113s-8.24-38.77-21.564-52.114l-96.232-96.186-192.375 192.375 96.233 96.142c13.235 13.378 31.595 21.663 51.891 21.663 0.054 0 0.108 0 0.162 0h-0.008zM843.842 619.575l80.156 80.156c9.203 9.232 14.893 21.969 14.893 36.036s-5.69 26.805-14.894 36.037l-88.148 88.193c-9.224 9.238-21.974 14.953-36.059 14.953s-26.835-5.715-36.058-14.952l-80.157-80.157zM623.583 751.821l192.238-192.375-411.226-411.226c-18.277-14.447-38.845-28.811-60.243-41.957l-2.792-1.596-7.675-4.905-174.845 174.845 5.722 7.857c15.488 21.655 31.074 40.642 47.805 58.548l-0.302-0.327zM783.713 559.447l-160.131 160.267-395.104-395.104c-13.573-14.458-26.513-30.020-38.488-46.335l-0.977-1.395 148.187-148.187c19.913 12.213 36.819 24.043 52.989 36.766l-1.171-0.888zM135.97 241.547l163.491-163.491-12.353-7.493-13.216-7.493-2.679-1.589-188.56-42.735 44.461 196.462c0.419 1.763 0.772 3.915 0.983 6.108l0.016 0.204v1.317l0.409 1.272c0.299 0.872 0.621 1.607 0.995 2.31l-0.041-0.085zM262.767 82.597l-116.033 116.26-33.97-150.094 149.867 33.97z" />
<glyph unicode="&#xe808;" glyph-name="exit" d="M85.312 63.968v768.013c0 23.558 19.098 42.656 42.656 42.656v0h213.382v85.363h-213.331c-70.703 0-128.019-57.316-128.019-128.019v0-768.013c0-70.703 57.316-128.019 128.019-128.019v0h213.331v85.312h-213.331c-0.015 0-0.033 0-0.051 0-23.558 0-42.656 19.098-42.656 42.656 0 0.018 0 0.036 0 0.054v-0.003zM986.606 538.497l-195.656 195.656-60.383-60.331 181.914-181.914-699.15-1.277v-85.312l701.551 1.226-184.417-184.417 60.127-60.485 195.656 195.656c23.319 23.192 37.751 55.3 37.751 90.778 0 35.301-14.288 67.264-37.396 90.423l0.002-0.002z" />
<glyph unicode="&#xe809;" glyph-name="eye_close" horiz-adv-x="1148" d="M1139.076 487.176v0c-48.188 102.996-115.119 189.745-197.133 259.243l-1.095 0.904 144.967 144.967-67.815 67.815-157.278-157.434c-80.902 47.597-178.215 75.712-282.095 75.712-1.692 0-3.383-0.007-5.072-0.022l0.258 0.002c-358.635 0-523.268-299.532-565.261-391.186-5.392-11.482-8.539-24.935-8.539-39.124s3.147-27.642 8.781-39.701l-0.242 0.577c48.188-102.996 115.119-189.745 197.133-259.243l1.095-0.904-144.967-145.175 67.815-67.815 157.278 157.538c80.902-47.597 178.215-75.712 282.095-75.712 1.692 0 3.383 0.007 5.072 0.022l-0.258-0.002c358.635 0 523.268 299.375 565.261 391.238 5.4 11.489 8.551 24.951 8.551 39.15s-3.152 27.661-8.793 39.726l0.242-0.577zM95.775 447.478c35.733 78.665 176.474 335.265 478.041 335.265 0.823 0.005 1.797 0.008 2.771 0.008 77.829 0 151.248-18.881 215.926-52.314l-2.629 1.236-84.403-84.403c-37.149 25.002-82.901 39.907-132.135 39.907-131.834 0-238.707-106.873-238.707-238.707 0-49.234 14.905-94.986 40.449-132.991l-0.542 0.856-99.374-99.374c-75.502 61.813-136.16 138.801-177.81 226.56l-1.69 3.957zM717.426 448c0-79.227-64.227-143.454-143.454-143.454-0.055 0-0.11 0-0.165 0h0.009c-22.384 0.089-43.513 5.375-62.27 14.715l0.819-0.369 190.559 190.559c8.97-17.937 14.257-39.066 14.345-61.421v-0.029zM430.518 448c0 79.172 64.137 143.365 143.289 143.454h0.009c22.384-0.089 43.513-5.375 62.27-14.715l-0.819 0.369-190.559-190.559c-8.97 17.937-14.257 39.066-14.345 61.421v0.029zM573.816 113.257c-0.823-0.005-1.797-0.008-2.771-0.008-77.829 0-151.248 18.881-215.926 52.314l2.629-1.236 84.403 84.403c37.149-25.002 82.901-39.907 132.135-39.907 131.834 0 238.707 106.873 238.707 238.707 0 49.234-14.905 94.986-40.449 132.991l0.542-0.856 99.114 99.114c75.651-61.878 136.355-139.064 177.873-227.080l1.679-3.959c-36.255-78.978-177.048-334.482-477.936-334.482z" />
<glyph unicode="&#xe80a;" glyph-name="eye_open" horiz-adv-x="1365" d="M1355.147 494.608v0c-49.965 109.206-245.842 465.392-672.253 465.392s-622.743-356.186-672.708-465.392c-6.423-13.687-10.172-29.724-10.172-46.636s3.749-32.949 10.46-47.324l-0.289 0.688c49.965-109.149 245.899-465.336 672.708-465.336s622.515 356.186 672.48 465.392c6.348 13.613 10.051 29.553 10.051 46.359 0 16.998-3.789 33.111-10.568 47.541l0.289-0.685zM682.894 49.816c-358.52 0-526.227 305.254-569.079 397.615 42.624 93.557 210.047 398.753 569.079 398.753s525.43-303.945 569.079-398.355c-43.876-94.069-211.356-398.014-569.079-398.014zM682.78 732.425c-157.147 0-284.539-127.393-284.539-284.539s127.393-284.539 284.539-284.539c157.147 0 284.539 127.393 284.539 284.539v0c0 157.147-127.393 284.539-284.539 284.539v0zM682.78 277.163c-94.288 0-170.724 76.436-170.724 170.724s76.436 170.724 170.724 170.724c94.288 0 170.724-76.436 170.724-170.724v0c0-94.288-76.436-170.724-170.724-170.724v0z" />
<glyph unicode="&#xe80b;" glyph-name="facebook" horiz-adv-x="565" d="M271.894-64c-34.782 0.001-68.912 2.786-102.182 8.143l3.655-0.485-18.833 2.938v422.066h-154.535v220.472h154.535v111.839c-0.207 3.902-0.324 8.47-0.324 13.066 0 68.908 26.475 131.632 69.807 178.556l-0.162-0.178c44.797 42.019 105.236 67.83 171.702 67.83 3.905 0 7.79-0.089 11.652-0.265l-0.548 0.020c49.938-0.659 98.323-5.070 145.527-12.966l-5.551 0.767 18.521-3.161v-190.82h-99.016c-51.022 0-76.934-24.487-76.934-72.793v-91.893h172.477l-33.792-220.427h-138.641v-422.066l-18.833-2.938c-29.605-4.885-63.732-7.685-98.51-7.702h-0.017zM199.057-15.026c21.87-2.847 47.164-4.471 72.838-4.471s50.968 1.625 75.785 4.777l-2.948-0.306v428.21h144.963l20.168 131.384h-165.131v136.459c-0.197 2.463-0.309 5.333-0.309 8.229 0 60.611 49.135 109.746 109.746 109.746 4.234 0 8.412-0.24 12.521-0.706l-0.503 0.046h54.495v108.232c-33.82 5.14-73.269 8.358-113.364 8.898l-0.611 0.006c-131.962 0-207.605-78.18-207.605-214.506v-156.36h-154.535v-131.384h154.535z" />
<glyph unicode="&#xe80c;" glyph-name="facebook_act" horiz-adv-x="544" d="M508.649 388.329l28.207 183.901h-176.454v119.389c-0.233 2.457-0.366 5.313-0.366 8.2 0 50.796 41.178 91.974 91.974 91.974 4.265 0 8.462-0.29 12.573-0.852l-0.478 0.053h80.244v156.579c-42.353 7.211-91.598 11.702-141.757 12.42l-0.719 0.008c-145.361 0-240.314-88.064-240.314-247.529v-140.195h-161.559v-183.901h161.559v-444.602c29.884-4.92 64.324-7.731 99.421-7.731s69.537 2.811 103.108 8.221l-3.687-0.49v444.556z" />
<glyph unicode="&#xe80d;" glyph-name="grid" d="M0 490.655v469.345h469.345v-469.345zM0-63.946v469.291h469.345v-469.291zM554.655 490.655v469.345h469.291v-469.345zM554.655-64v469.345h469.291v-469.291zM85.311 576.020h298.669v298.669h-298.669zM639.966 576.020h298.669v298.669h-298.615zM639.966 21.365h298.669v298.615h-298.615zM85.311 21.365h298.669v298.615h-298.669z" />
<glyph unicode="&#xe80e;" glyph-name="grid_act" d="M568.908-63.886v455.035h455.035v-455.035zM0.114-63.886v455.035h455.035v-455.035zM568.908 504.908v455.035h455.035v-455.035zM0.114 504.908v455.035h455.035v-455.035z" />
<glyph unicode="&#xe80f;" glyph-name="heart" horiz-adv-x="1098" d="M800.563 960c-107.864-1.734-201.371-61.548-250.786-149.467l-0.76-1.471c-50.174 89.39-143.682 149.204-251.305 150.935l-0.241 0.003c-165.823-7.457-297.437-143.705-297.437-310.693 0-4.119 0.080-8.22 0.239-12.3l-0.018 0.587c0-309.862 501.043-667.699 522.24-682.854l26.419-18.688 26.419 18.688c21.299 15.104 522.24 373.043 522.24 682.854 0.144 3.538 0.226 7.692 0.226 11.864 0 167.008-131.645 303.268-296.826 310.672l-0.668 0.024zM549.018 48.64c-148.787 111.155-457.318 384-457.318 588.8-0.216 3.641-0.338 7.898-0.338 12.184 0 116.515 90.785 211.826 205.477 219.054l0.634 0.032c115.345-7.238 206.154-102.559 206.154-219.089 0-4.231-0.12-8.434-0.356-12.606l0.026 0.578h91.443c-0.21 3.594-0.33 7.797-0.33 12.028 0 116.53 90.809 211.85 205.521 219.057l0.632 0.032c115.322-7.264 206.103-102.574 206.103-219.085 0-4.232-0.12-8.437-0.356-12.61l0.026 0.579c0-204.954-308.531-477.85-457.318-589.005z" />
<glyph unicode="&#xe810;" glyph-name="heart_fill" horiz-adv-x="1098" d="M800.563 960c-107.864-1.734-201.371-61.548-250.786-149.467l-0.76-1.471c-50.174 89.39-143.682 149.204-251.305 150.935l-0.241 0.003c-165.823-7.457-297.437-143.705-297.437-310.693 0-4.119 0.080-8.22 0.239-12.3l-0.018 0.587c0-309.862 501.043-667.699 522.24-682.854l26.419-18.688 26.419 18.688c21.299 15.104 522.24 373.043 522.24 682.854 0.144 3.538 0.226 7.692 0.226 11.864 0 167.008-131.645 303.268-296.826 310.672l-0.668 0.024z" />
<glyph unicode="&#xe811;" glyph-name="instagram" d="M204.8 878.080c-67.865 0-122.88-55.015-122.88-122.88v0-614.4c0-67.865 55.015-122.88 122.88-122.88h614.4c67.865 0 122.88 55.015 122.88 122.88v0 614.4c0 67.865-55.015 122.88-122.88 122.88v0h-614.4zM204.8 960h614.4c113.108 0 204.8-91.692 204.8-204.8v0-614.4c0-113.108-91.692-204.8-204.8-204.8v0h-614.4c-113.108 0-204.8 91.692-204.8 204.8v0 614.4c0 113.108 91.692 204.8 204.8 204.8v0zM512 622.080c-96.142 0-174.080-77.938-174.080-174.080s77.938-174.080 174.080-174.080c96.142 0 174.080 77.938 174.080 174.080v0c0 96.142-77.938 174.080-174.080 174.080v0zM512 704c141.385 0 256-114.615 256-256s-114.615-256-256-256c-141.385 0-256 114.615-256 256v0c0 141.385 114.615 256 256 256v0zM839.68 724.48c0-28.277-22.923-51.2-51.2-51.2s-51.2 22.923-51.2 51.2c0 28.277 22.923 51.2 51.2 51.2s51.2-22.923 51.2-51.2z" />
<glyph unicode="&#xe812;" glyph-name="instagram_act" horiz-adv-x="1026" d="M270.956-64h484.294c149.946 1.535 270.909 123.447 270.909 273.611 0 0.546-0.002 1.091-0.005 1.636v-0.084 473.622c-1.022 150.83-122.408 272.973-272.848 275.212l-0.212 0.002h-482.293c-149.902-1.593-270.807-123.482-270.807-273.61 0-0.564 0.002-1.128 0.005-1.692v0.087-473.622c-0.003-0.461-0.004-1.006-0.004-1.552 0-150.182 120.992-272.105 270.818-273.61l0.142-0.001zM810.662 789.35c0.642 0.023 1.397 0.036 2.155 0.036 35.364 0 64.032-28.668 64.032-64.032s-28.668-64.032-64.032-64.032c-35.364 0-64.032 28.668-64.032 64.032 0 0.005 0 0.011 0 0.016v-0.001c-0.013 0.474-0.020 1.033-0.020 1.592 0 34.284 27.653 62.109 61.871 62.388h0.026zM512 703.974c1.925 0.052 4.192 0.082 6.465 0.082 141.427 0 256.077-114.65 256.077-256.077s-114.65-256.077-256.077-256.077c-141.417 0-256.060 114.632-256.077 256.045v0.002c-0.014 0.997-0.022 2.174-0.022 3.353 0 138.483 111.398 250.947 249.472 252.671l0.163 0.002z" />
<glyph unicode="&#xe813;" glyph-name="linkedin" d="M204.8 878.080c-67.865 0-122.88-55.015-122.88-122.88v0-614.4c0-67.865 55.015-122.88 122.88-122.88h614.4c67.865 0 122.88 55.015 122.88 122.88v0 614.4c0 67.865-55.015 122.88-122.88 122.88v0h-614.4zM204.8 960h614.4c113.108 0 204.8-91.692 204.8-204.8v0-614.4c0-113.108-91.692-204.8-204.8-204.8v0h-614.4c-113.108 0-204.8 91.692-204.8 204.8v0 614.4c0 113.108 91.692 204.8 204.8 204.8v0zM227.738 668.16c-0.012 0.425-0.018 0.926-0.018 1.428 0 16.493 7.187 31.306 18.6 41.481l0.055 0.048c12.243 10.611 28.33 17.077 45.928 17.077 1.17 0 2.334-0.029 3.49-0.085l-0.163 0.006c0.993 0.050 2.157 0.079 3.327 0.079 17.597 0 33.685-6.466 46.015-17.152l-0.088 0.074c11.468-10.222 18.655-25.036 18.655-41.529 0-0.502-0.007-1.003-0.020-1.502l0.002 0.074c0.006-0.31 0.010-0.675 0.010-1.042 0-16.389-7.19-31.098-18.587-41.146l-0.060-0.052c-12.243-10.611-28.33-17.077-45.928-17.077-1.17 0-2.334 0.029-3.49 0.085l0.163-0.006c-1.078-0.059-2.339-0.093-3.609-0.093-17.467 0-33.446 6.37-45.74 16.914l0.094-0.079c-11.46 10.1-18.652 24.812-18.652 41.203 0 0.455 0.006 0.908 0.017 1.36l-0.001-0.067zM352.205 563.405v-371.405h-113.818v371.405zM666.368 567.398c1.736 0.084 3.77 0.132 5.816 0.132 37.959 0 72.077-16.451 95.61-42.613l0.104-0.117c23.585-29.054 37.867-66.491 37.867-107.264 0-3.476-0.104-6.928-0.309-10.353l0.023 0.472v-215.654h-113.818v202.342c0.092 1.451 0.144 3.148 0.144 4.856 0 20.455-7.497 39.159-19.893 53.515l0.089-0.105c-12.438 12.985-29.917 21.056-49.281 21.056-1.035 0-2.065-0.023-3.089-0.069l0.146 0.005c-1.018 0.052-2.211 0.082-3.411 0.082-20.236 0-38.499-8.452-51.449-22.019l-0.026-0.028c-12.851-15.302-20.658-35.215-20.658-56.951 0-1.976 0.065-3.936 0.192-5.88l-0.014 0.264v-197.069h-113.664v371.405h113.818v-67.891c10.621 22.093 26.94 40.007 47.075 52.276l0.541 0.306c20.28 12.154 44.744 19.341 70.887 19.341 1.161 0 2.319-0.014 3.473-0.042l-0.171 0.003z" />
<glyph unicode="&#xe814;" glyph-name="linkedin_act" d="M170.65 959.949c-0.106 0-0.233 0-0.359 0-94.049 0-170.291-76.242-170.291-170.291 0-0.108 0-0.216 0-0.324v0.017-682.65c0-0.107 0-0.233 0-0.359 0-94.049 76.242-170.291 170.291-170.291 0.126 0 0.252 0 0.378 0h682.681c0.107 0 0.233 0 0.359 0 94.049 0 170.291 76.242 170.291 170.291 0 0.126 0 0.252 0 0.378v-0.020 682.65c0 0.107 0 0.233 0 0.359 0 94.049-76.242 170.291-170.291 170.291-0.126 0-0.252 0-0.378 0h0.020zM270.131 755.149c1.823 0.163 3.944 0.256 6.087 0.256 40.040 0 72.499-32.459 72.499-72.499s-32.459-72.499-72.499-72.499c-2.143 0-4.264 0.093-6.359 0.275l0.272-0.019c-1.629-0.13-3.528-0.205-5.444-0.205-40.012 0-72.448 32.436-72.448 72.448s32.436 72.448 72.448 72.448c1.916 0 3.814-0.074 5.692-0.22l-0.249 0.016zM676.301 564.736c2.606 0.164 5.651 0.257 8.718 0.257 81.749 0 148.019-66.27 148.019-148.019 0-6.316-0.396-12.54-1.164-18.649l0.075 0.728v-258.765h-140.339v259.072c0.035 0.745 0.056 1.618 0.056 2.496 0 30.907-25.055 55.962-55.962 55.962-2.492 0-4.947-0.163-7.353-0.479l0.283 0.030c-77.158 0-77.517-77.67-77.517-105.984v-210.739h-140.442v421.427h140.442v-70.554c24.077 43.97 70.029 73.288 122.828 73.288 0.846 0 1.691-0.008 2.534-0.023l-0.127 0.002zM200.141 561.715h140.288v-421.427h-140.442z" />
<glyph unicode="&#xe815;" glyph-name="list_act" horiz-adv-x="1221" d="M324.525-36.324v98.249h896.692v-98.249zM324.525 398.903v98.193h896.692v-98.249zM324.525 834.131v98.193h896.692v-98.249zM166.054 876.973c0-45.855-37.172-83.027-83.027-83.027s-83.027 37.172-83.027 83.027c0 45.855 37.172 83.027 83.027 83.027s83.027-37.172 83.027-83.027zM166.054 461.838c0-45.855-37.172-83.027-83.027-83.027s-83.027 37.172-83.027 83.027c0 45.855 37.172 83.027 83.027 83.027s83.027-37.172 83.027-83.027zM166.054 19.027c0-45.855-37.172-83.027-83.027-83.027s-83.027 37.172-83.027 83.027c0 45.855 37.172 83.027 83.027 83.027s83.027-37.172 83.027-83.027z" />
<glyph unicode="&#xe816;" glyph-name="search" d="M456.123 960c251.91 0 456.123-204.213 456.123-456.123s-204.213-456.123-456.123-456.123c-251.91 0-456.123 204.213-456.123 456.123v0c0.293 251.791 204.331 455.829 456.094 456.123h0.029zM456.123 122.852c210.435 0 381.025 170.591 381.025 381.025s-170.591 381.025-381.025 381.025c-210.435 0-381.025-170.591-381.025-381.025v0c0.24-210.338 170.688-380.785 381.002-381.025h0.023zM986.451-64c-0.009 0-0.019 0-0.030 0-10.361 0-19.743 4.197-26.536 10.983v0l-242.001 242.001c-6.79 6.794-10.989 16.178-10.989 26.542s4.199 19.748 10.989 26.542v0c6.794 6.79 16.178 10.989 26.542 10.989s19.748-4.199 26.542-10.989l242.001-241.954c6.804-6.796 11.013-16.19 11.013-26.566 0-20.738-16.811-37.549-37.549-37.549-0.010 0-0.021 0-0.031 0h0.002z" />
<glyph unicode="&#xe817;" glyph-name="settings" horiz-adv-x="921" d="M460.677 618.653c-94.249 0-170.653-76.404-170.653-170.653s76.404-170.653 170.653-170.653c94.249 0 170.653 76.404 170.653 170.653v0c0 94.249-76.404 170.653-170.653 170.653v0zM460.677 362.631c-47.124 0-85.326 38.202-85.326 85.326s38.202 85.326 85.326 85.326c47.124 0 85.326-38.202 85.326-85.326v0c0-47.124-38.202-85.326-85.326-85.326v0zM857.201 366.908l-18.886 10.925c4.069 21.103 6.397 45.374 6.397 70.188s-2.328 49.085-6.777 72.605l0.38-2.417 18.928 10.925c38.565 22.551 64.060 63.76 64.060 110.924 0 70.729-57.337 128.066-128.066 128.066-23.565 0-45.643-6.365-64.61-17.469l0.605 0.327-18.971-10.967c-34.458 29.56-74.902 53.352-119.115 69.244l-2.671 0.838v21.893c0.013 0.693 0.021 1.51 0.021 2.328 0 70.698-57.312 128.011-128.011 128.011s-128.011-57.312-128.011-128.011c0-0.819 0.008-1.635 0.023-2.45l-0.002 0.122v-21.893c-46.714-16.847-86.996-40.7-121.817-70.713l0.498 0.419-19.055 11.052c-18.362 10.777-40.44 17.142-64.005 17.142-70.729 0-128.066-57.337-128.066-128.066 0-47.164 25.495-88.373 63.456-110.597l0.605-0.327 18.928-10.925c-4.069-21.103-6.397-45.374-6.397-70.188s2.328-49.085 6.777-72.605l-0.38 2.417-18.928-10.925c-38.565-22.551-64.060-63.76-64.060-110.924 0-70.729 57.337-128.066 128.066-128.066 23.565 0 45.643 6.365 64.61 17.469l-0.605-0.327 18.971 10.967c34.413-29.528 74.799-53.304 118.946-69.2l2.67-0.84v-21.893c-0.013-0.693-0.021-1.51-0.021-2.328 0-70.698 57.312-128.011 128.011-128.011s128.011 57.312 128.011 128.011c0 0.819-0.008 1.635-0.023 2.45l0.002-0.122v21.893c46.793 16.81 87.148 40.653 122.035 70.674l-0.503-0.423 19.055-11.010c18.359-10.762 40.429-17.117 63.984-17.117 70.774 0 128.147 57.373 128.147 128.147 0 47.219-25.538 88.472-63.556 110.702l-0.607 0.328zM748.5 527.821c6.88-23.98 10.836-51.524 10.836-79.991s-3.956-56.011-11.349-82.11l0.513 2.119c-0.981-3.412-1.545-7.33-1.545-11.381 0-15.724 8.503-29.463 21.161-36.869l0.202-0.109 46.241-26.72c11.805-7.723 19.496-20.882 19.496-35.837 0-23.574-19.11-42.684-42.684-42.684-7.119 0-13.831 1.743-19.732 4.825l0.236-0.112-46.326 26.805c-6.132 3.609-13.508 5.742-21.382 5.742-11.92 0-22.699-4.886-30.443-12.765l-0.006-0.006c-36.961-37.704-83.789-65.603-136.306-79.522l-2.079-0.469c-18.575-4.892-32.051-21.536-32.056-41.329v-53.483c0.013-0.401 0.021-0.872 0.021-1.344 0-23.574-19.11-42.684-42.684-42.684s-42.684 19.11-42.684 42.684c0 0.473 0.008 0.944 0.023 1.413l-0.002-0.068v53.398c-0.005 19.793-13.481 36.437-31.758 41.262l-0.298 0.067c-54.588 14.488-101.386 42.484-138.243 80.228l-0.057 0.059c-7.75 7.885-18.529 12.771-30.449 12.771-7.874 0-15.25-2.132-21.583-5.851l0.201 0.109-46.241-26.762c-6.364-3.976-14.094-6.334-22.374-6.334-23.574 0-42.684 19.11-42.684 42.684 0 16.132 8.949 30.173 22.153 37.431l0.221 0.111 46.241 26.72c12.86 7.515 21.363 21.253 21.363 36.978 0 4.050-0.564 7.969-1.618 11.682l0.073-0.301c-6.88 23.98-10.836 51.524-10.836 79.991s3.956 56.011 11.349 82.11l-0.513-2.119c0.952 3.363 1.499 7.224 1.499 11.214 0 15.723-8.501 29.46-21.158 36.867l-0.202 0.109-46.241 26.678c-12.86 7.52-21.362 21.261-21.362 36.989 0 23.585 19.119 42.704 42.704 42.704 7.858 0 15.22-2.122 21.544-5.825l-0.202 0.109 46.326-26.805c6.151-3.638 13.555-5.788 21.461-5.788 11.859 0 22.589 4.836 30.324 12.644l0.003 0.003c36.961 37.704 83.789 65.603 136.306 79.522l2.079 0.469c18.578 4.893 32.056 21.543 32.056 41.34 0 0.056 0 0.112 0 0.167v-0.009 53.44c-0.013 0.401-0.021 0.872-0.021 1.344 0 23.574 19.11 42.684 42.684 42.684s42.684-19.11 42.684-42.684c0-0.473-0.008-0.944-0.023-1.413l0.002 0.068v-53.398c0.005-19.793 13.481-36.437 31.758-41.262l0.298-0.067c54.61-14.437 101.438-42.393 138.333-80.106l0.053-0.054c7.75-7.885 18.529-12.771 30.449-12.771 7.874 0 15.25 2.132 21.583 5.851l-0.201-0.109 46.241 26.762c6.364 3.976 14.094 6.334 22.374 6.334 23.574 0 42.684-19.11 42.684-42.684 0-16.132-8.949-30.173-22.153-37.431l-0.221-0.111-46.241-26.72c-12.817-7.525-21.286-21.24-21.286-36.933 0-4.005 0.552-7.881 1.583-11.556l-0.072 0.3z" />
<glyph unicode="&#xe818;" glyph-name="star" horiz-adv-x="1080" d="M539.936 960.043l142.96-369.92 396.976-21.44-308.731-249.986 102.267-382.998-333.601 215.297-333.472-214.954 102.267 382.955-308.731 249.986 396.976 21.44zM909.469 513.755l-271.597 14.622-97.936 253.288-97.979-253.331-271.597-14.622 211.138-171.003-70.022-262.293 228.504 147.462 228.461-147.462-70.065 262.293z" />
<glyph unicode="&#xe819;" glyph-name="star_fill" horiz-adv-x="1078" d="M538.947 136.848l333.069-200.848-88.118 378.835 293.996 254.742-387.548 33.235-151.399 357.187-151.399-357.142-387.548-33.28 293.996-254.742-88.118-378.835z" />
<glyph unicode="&#xe81a;" glyph-name="star_half" horiz-adv-x="1078" d="M1077.989 569.588l-387.537 33.238-151.457 357.174-151.457-357.174-387.537-33.238 293.977-254.765-88.081-378.913 333.099 201 333.009-201-88.126 378.823 294.111 254.855zM538.995 238.017v501.265l92.168-217.529 236.080-20.257-179.126-155.096 53.899-230.735-203.021 122.352z" />
<glyph unicode="&#xe81b;" glyph-name="tick" d="M512 960c282.713-0.076 511.867-229.277 511.867-512 0-141.352-57.281-269.325-149.896-361.974l0.002 0.002c-91.903-88.542-217.097-143.085-355.029-143.085-282.77 0-512 229.23-512 512 0 137.932 54.543 263.125 143.237 355.188l-0.152-0.159c92.153 92.674 219.74 150.029 360.723 150.029 0.439 0 0.878-0.001 1.317-0.002h-0.068zM512 7.442c243.314 0 440.558 197.245 440.558 440.558s-197.245 440.558-440.558 440.558c-243.314 0-440.558-197.245-440.558-440.558v0c0.271-243.204 197.353-440.287 440.532-440.558h0.026zM445.988 280.255c-9.86 0.009-18.784 4.012-25.242 10.478l-131.977 132.073c-5.766 6.321-9.298 14.767-9.298 24.037 0 19.728 15.993 35.721 35.721 35.721 9.283 0 17.738-3.541 24.090-9.345l-0.028 0.025 106.734-106.734 238.759 238.711c6.419 6.211 15.176 10.039 24.828 10.039 19.728 0 35.721-15.993 35.721-35.721 0-9.64-3.819-18.388-10.026-24.814l-264.087-263.991c-6.448-6.455-15.352-10.456-25.191-10.478h-0.004z" />
<glyph unicode="&#xe81c;" glyph-name="trash" horiz-adv-x="866" d="M590.828-64h-315.137c-108.73 0-196.879 88.118-196.928 196.837v472.667c-0.014 0.39-0.022 0.848-0.022 1.307 0 21.762 17.641 39.403 39.403 39.403s39.403-17.641 39.403-39.403c0-0.46-0.008-0.918-0.023-1.374l0.002 0.066v-472.662c0-65.261 52.905-118.166 118.166-118.166v0h315.137c65.224 0.049 118.079 52.935 118.079 118.165v0 472.662c0.726 21.192 18.079 38.096 39.381 38.096s38.656-16.904 39.379-38.029l0.002-0.066v-472.662c-0.049-108.692-88.149-196.792-196.836-196.841h-0.005zM827.072 723.712h-787.669c-0.39-0.014-0.848-0.022-1.307-0.022-21.762 0-39.403 17.641-39.403 39.403s17.641 39.403 39.403 39.403c0.46 0 0.918-0.008 1.374-0.023l-0.066 0.002h787.669c0.39 0.014 0.848 0.022 1.307 0.022 21.762 0 39.403-17.641 39.403-39.403s-17.641-39.403-39.403-39.403c-0.46 0-0.918 0.008-1.374 0.023l0.066-0.002zM590.741 723.712h-315.050c-21.746 0-39.378 17.617-39.403 39.357v78.765c0 65.261 52.905 118.166 118.166 118.166v0h157.525c65.261 0 118.166-52.905 118.166-118.166v-78.763c-0.025-21.743-17.657-39.36-39.403-39.36v0zM315.050 802.475h236.288v39.36c0 21.762-17.641 39.403-39.403 39.403v0h-157.525c-21.762 0-39.403-17.641-39.403-39.403v0zM354.497 172.331c-21.746 0-39.378 17.617-39.403 39.357v275.693c-0.014 0.39-0.022 0.848-0.022 1.307 0 21.762 17.641 39.403 39.403 39.403s39.403-17.641 39.403-39.403c0-0.46-0.008-0.918-0.023-1.374l0.002 0.066v-275.691c-0.025-21.728-17.632-39.335-39.357-39.36h-0.002zM512.022 172.331c-21.746 0-39.378 17.617-39.403 39.357v275.693c-0.014 0.39-0.022 0.848-0.022 1.307 0 21.762 17.641 39.403 39.403 39.403s39.403-17.641 39.403-39.403c0-0.46-0.008-0.918-0.023-1.374l0.002 0.066v-275.691c-0.025-21.728-17.632-39.335-39.357-39.36h-0.002z" />
<glyph unicode="&#xe81d;" glyph-name="twitter" horiz-adv-x="1207" d="M1207.44 960l-31.641-87.039c-7.864-21.274-17.084-39.58-28.059-56.651l0.688 1.143 12.043 5.474 39.25-50.198c-33.248-44.245-70.605-82.68-112.268-115.951l-1.267-0.977v-12.262c-1.45-182.93-69.796-349.622-181.741-477.078l0.71 0.825c-60.724-69.504-134.63-125.809-218.034-165.343l-4.054-1.729c-87.225-40.576-189.348-64.248-296.999-64.248-2.513 0-5.022 0.013-7.529 0.039l0.382-0.003c-140.746 0.202-271.779 41.608-381.734 112.798l2.756-1.672 25.619 59.559c12.261-2.563 26.35-4.030 40.782-4.030 3.196 0 6.376 0.072 9.537 0.214l-0.449-0.016c74.958 0.075 145.525 18.804 207.331 51.795l-2.377-1.159c-79.199 28.214-139.708 91.349-163.742 170.369l-0.483 1.849-18.12 60.435 10.948-3.558q-7.335 7.609-14.123 15.82c-38.509 46.565-61.88 106.878-61.913 172.648v66.19l33.94-22.718c-21.333 37.489-33.917 82.36-33.94 130.169v0.007c-0.022 1.241-0.035 2.704-0.035 4.17 0 49.514 14.438 95.655 39.334 134.444l-0.596-0.993 24.579 39.305 28.958-36.184c102.882-129.453 253.832-216.874 425.442-235.152l2.748-0.237c0 5.474 0 11.496 0 17.189 0.093 148.519 120.435 268.9 268.931 269.056h0.015c71.572-0.047 136.54-28.284 184.408-74.208l-0.092 0.088c45.985 10.986 86.505 28.269 123.129 51.198l-1.712-1zM983.436 790.793l-12.262 13.631c-36.85 40.691-89.87 66.153-148.838 66.183h-0.005c-112.175-0.124-203.077-91.026-203.202-203.189v-0.012c-0.154-2.702-0.242-5.864-0.242-9.046 0-11.873 1.224-23.459 3.554-34.64l-0.191 1.097 15.163-45.49-47.899 2.299c-107.469 4.849-207.273 33.267-295.781 80.167l3.789-1.831c-73.609 38.824-136.39 87.353-189.586 144.877l-0.423 0.463c-5.634-17.43-8.882-37.484-8.882-58.296 0-0.81 0.005-1.618 0.015-2.426l-0.001 0.123c0.784-70.825 36.712-133.093 91.139-170.276l0.718-0.463 86.437-59.833h-105.159c-0.288-0.001-0.629-0.002-0.971-0.002-23.73 0-46.695 3.278-68.466 9.407l1.776-0.427c17.498-76.759 77.968-135.724 154.214-150.772l1.253-0.206 2.080-64.157c-18.037-5.278-39.038-8.984-60.673-10.357l-0.857-0.044c35.311-56.486 97.164-93.505 167.663-93.505 0.524 0 1.047 0.002 1.569 0.006h97.141l-77.241-58.957c-65.655-51.191-145.554-87.243-232.775-101.524l-2.998-0.405c66.926-26.24 144.421-41.463 225.468-41.494h0.013c1.848-0.019 4.031-0.030 6.217-0.030 350.915 0 635.388 284.473 635.388 635.388 0 2.205-0.011 4.407-0.034 6.607l0.003-0.336v45.983l14.014 9.799c12.24 8.649 22.855 17.056 32.998 25.987l-0.427-0.368c-8.266-1.369-16.423-2.463-24.908-3.285l-20.145 60.873c12.514 7.635 23.37 15.913 33.29 25.179l-0.116-0.108c-14.478-4.842-32.566-9.487-51.063-12.98l-2.749-0.432z" />
<glyph unicode="&#xe81e;" glyph-name="twitter_act" horiz-adv-x="1267" d="M1266.79 838.605c-43.014-20.721-92.962-35.535-145.539-41.768l-2.246-0.217c53.106 33.185 93.653 82.179 115.479 140.329l0.638 1.938c-46.967-29.48-101.879-51.528-160.61-62.853l-3.009-0.483c-46.954 51.947-114.579 84.449-189.796 84.449-0.012 0-0.024 0-0.035 0h0.002c-142.738-0.239-258.385-115.886-258.624-258.601v-0.023c-0.206-3.379-0.323-7.328-0.323-11.305 0-16.595 2.042-32.713 5.889-48.117l-0.288 1.363c-218.262 9.957-410.26 114.469-537.238 273.246l-1.122 1.452c-23.346-36.195-37.221-80.409-37.221-127.864 0-1.437 0.013-2.871 0.038-4.302l-0.003 0.215c0.914-89.787 46.333-168.772 115.216-216.055l0.901-0.584c-1.295-0.028-2.822-0.045-4.352-0.045-41.372 0-79.987 11.807-112.659 32.234l0.894-0.521v-5.278c-0.008-0.76-0.013-1.658-0.013-2.557 0-123.637 87.651-226.802 204.204-250.745l1.652-0.284c-20.423-6.168-43.96-9.985-68.302-10.55l-0.313-0.006c-2.338-0.134-5.074-0.21-7.827-0.21-14.127 0-27.786 2.004-40.708 5.744l1.032-0.256c31.552-104.6 127.040-179.469 240.014-179.469 0.976 0 1.951 0.006 2.924 0.017l-0.148-0.001c-87.97-68.794-200.064-110.447-321.872-110.839h-0.089c-2.915-0.118-6.336-0.186-9.772-0.186-18.972 0-37.464 2.056-55.265 5.957l1.701-0.313c112.008-72.511 248.844-115.752 395.757-116.117h0.096c2.006-0.020 4.376-0.031 6.749-0.031 404.421 0 732.268 327.848 732.268 732.268 0 2.373-0.011 4.743-0.034 7.111l0.003-0.363v31.668c50.729 37.693 94.259 81.222 130.767 130.286l1.184 1.665z" />
<glyph unicode="&#xe81f;" glyph-name="user" horiz-adv-x="768" d="M384.006 447.978c141.379 0 255.989 114.61 255.989 255.989s-114.61 255.989-255.989 255.989c-141.363 0-255.963-114.585-255.989-255.942v-0.002c0-141.379 114.61-255.989 255.989-255.989v0zM384.006 874.626c94.252 0 170.659-76.407 170.659-170.659s-76.407-170.659-170.659-170.659c-94.252 0-170.659 76.407-170.659 170.659 0 0.016 0 0.031 0 0.047v-0.002c0 94.252 76.407 170.659 170.659 170.659v0zM384.006 362.648c-211.988-0.229-383.776-172.017-384.006-383.983v-0.022c-0.014-0.412-0.022-0.895-0.022-1.381 0-23.575 19.112-42.687 42.687-42.687s42.687 19.112 42.687 42.687c0 0.486-0.008 0.97-0.024 1.451l0.002-0.070c-0.014 1.086-0.022 2.369-0.022 3.654 0 164.954 133.722 298.676 298.676 298.676s298.676-133.722 298.676-298.676c0-1.285-0.008-2.568-0.024-3.849l0.002 0.195c-0.014-0.412-0.022-0.895-0.022-1.381 0-23.575 19.112-42.687 42.687-42.687s42.687 19.112 42.687 42.687c0 0.486-0.008 0.97-0.024 1.451l0.002-0.070c-0.229 211.973-171.992 383.751-383.936 384.006h-0.024z" />
<glyph unicode="&#xe830;" glyph-name="arrow_right" d="M650.701 759.040c-8.454-7.9-13.724-19.117-13.724-31.565s5.269-23.665 13.699-31.542l0.025-0.023 213.504-204.493h-817.869c-0.637 0.033-1.383 0.051-2.134 0.051-24.573 0-44.493-19.92-44.493-44.493s19.92-44.493 44.493-44.493c0.751 0 1.497 0.019 2.238 0.055l-0.104-0.004h816.947l-212.582-203.11c-8.322-7.877-13.502-19.001-13.502-31.334s5.179-23.458 13.482-31.316l0.020-0.019c8.536-8.006 20.052-12.924 32.717-12.924s24.181 4.918 32.743 12.948l-0.026-0.024 295.168 282.726c7.684 6.978 12.49 17.008 12.49 28.16s-4.805 21.182-12.458 28.132l-0.031 0.028-294.707 283.136c-8.564 8.137-20.171 13.141-32.947 13.141s-24.383-5.005-32.968-13.161l0.021 0.019z" />
<glyph unicode="&#xe831;" glyph-name="filter" horiz-adv-x="938" d="M554.596-64c-9.653 0-18.557 3.206-25.706 8.611l0.107-0.078-170.659 127.994c-10.409 7.866-17.066 20.222-17.066 34.132v0 239.794l-299.387 336.776c-25.998 29.224-41.881 67.946-41.881 110.378 0 91.862 74.442 166.338 166.291 166.393h605.891c91.813-0.11 166.2-74.564 166.2-166.392 0-42.454-15.899-81.194-42.068-110.591l0.146 0.167-299.204-336.73v-367.789c0-23.563-19.102-42.665-42.665-42.665v0zM426.556 127.991l85.33-64.227v298.653c0 0.034 0 0.073 0 0.113 0 11.023 4.181 21.070 11.043 28.642l309.907 348.622c12.686 14.243 20.438 33.122 20.438 53.813 0 44.77-36.293 81.063-81.063 81.063-0.008 0-0.016 0-0.024 0h-605.884c-44.76-0.013-81.040-36.301-81.040-81.063 0-20.69 7.751-39.57 20.509-53.894l-0.071 0.081 310.122-348.658c6.664-7.493 10.735-17.42 10.735-28.298 0-0.019 0-0.038 0-0.056v0.003z" />
<glyph unicode="&#xe832;" glyph-name="back" d="M512.022-64.014l-512.023 512.023 512.023 512.023 55.042-55.042-456.955-456.955 456.981-456.981z" />
<glyph unicode="&#xe833;" glyph-name="components" d="M551.125-21.333h-61.397c-0.005 0-0.012 0-0.018 0-21.608 0-39.125 17.517-39.125 39.125 0 4.049 0.615 7.954 1.756 11.627l-0.074-0.277c10.53 31.106 17.852 67.182 20.487 104.552l0.079 1.389c0 43.205-35.024 78.229-78.229 78.229s-78.229-35.024-78.229-78.229v0c2.76-38.775 10.125-74.844 21.592-109.032l-0.899 3.090c1.067-3.396 1.682-7.301 1.682-11.349 0-21.608-17.517-39.125-39.125-39.125-0.006 0-0.013 0-0.019 0h-61.396c-107.936 0.146-195.396 87.606-195.541 195.528v312.931c0.146 107.936 87.606 195.396 195.528 195.541h10.638c-5.843 23.149-9.661 49.988-10.606 77.556l-0.018 0.652c-0.014 0.769-0.021 1.675-0.021 2.584 0 86.41 70.049 156.459 156.459 156.459s156.459-70.049 156.459-156.459c0-0.908-0.008-1.815-0.023-2.72l0.002 0.136c-0.963-28.221-4.782-55.059-11.184-80.878l0.56 2.67h10.624c104.924 0 190.572-82.532 195.567-186.219l0.017-0.448c23.131 5.831 49.965 9.664 77.524 10.647l0.684 0.019c85.291-1.453 153.875-70.936 153.875-156.437s-68.584-154.984-153.739-156.436l-0.136-0.002c-28.237 0.99-55.073 4.808-80.9 11.186l2.692-0.562v-30.208c-0.146-107.936-87.606-195.396-195.528-195.541h-0.014zM540.501 56.875h10.624c64.801 0 117.333 52.532 117.333 117.333v0 81.067c0.014 21.598 17.526 39.101 39.125 39.101 4.049 0 7.953-0.615 11.627-1.756l-0.277 0.074c31.103-10.52 67.178-17.841 104.545-20.486l1.396-0.079c43.205 0 78.229 35.024 78.229 78.229s-35.024 78.229-78.229 78.229v0c-38.763-2.724-74.838-10.046-109.040-21.462l3.099 0.897c-3.396-1.067-7.301-1.682-11.349-1.682-21.6 0-39.111 17.503-39.125 39.1v41.814c0 64.801-52.532 117.333-117.333 117.333v0h-61.397c-21.6 0.012-39.105 17.524-39.105 39.125 0 4.002 0.601 7.863 1.717 11.498l-0.073-0.277c10.53 31.106 17.852 67.182 20.487 104.552l0.079 1.389c0 43.205-35.024 78.229-78.229 78.229s-78.229-35.024-78.229-78.229v0c2.76-38.775 10.125-74.844 21.592-109.032l-0.899 3.090c1.067-3.396 1.682-7.301 1.682-11.349 0-21.6-17.503-39.111-39.1-39.125h-61.441c-64.801 0-117.333-52.532-117.333-117.333v0-312.875c0-64.801 52.532-117.333 117.333-117.333v0h10.624c-5.843 23.149-9.661 49.988-10.606 77.556l-0.018 0.652c-0.014 0.769-0.021 1.675-0.021 2.584 0 86.41 70.049 156.459 156.459 156.459s156.459-70.049 156.459-156.459c0-0.908-0.008-1.815-0.023-2.72l0.002 0.136c-0.963-28.221-4.782-55.059-11.184-80.878l0.56 2.67z" />
<glyph unicode="&#xe834;" glyph-name="analytics" d="M942.208 56.875h-704c-64.801 0-117.333 52.532-117.333 117.333v0 704c0.014 0.385 0.021 0.838 0.021 1.292 0 21.608-17.517 39.125-39.125 39.125s-39.125-17.517-39.125-39.125c0-0.454 0.008-0.907 0.023-1.357l-0.002 0.065v-704c0.146-107.936 87.606-195.396 195.528-195.541h704.014c0.385-0.014 0.838-0.021 1.292-0.021 21.608 0 39.125 17.517 39.125 39.125s-17.517 39.125-39.125 39.125c-0.454 0-0.907-0.008-1.357-0.023l0.065 0.002zM278.997 127.957c23.258 0 42.112 18.854 42.112 42.112v0 294.656c0.014 0.399 0.021 0.869 0.021 1.34 0 23.258-18.854 42.112-42.112 42.112s-42.112-18.854-42.112-42.112c0-0.471 0.008-0.941 0.023-1.408l-0.002 0.068v-294.699c0.024-23.224 18.845-42.045 42.067-42.069h0.002zM431.061 545.963v-378.88c0.745-22.674 19.304-40.772 42.091-40.772s41.346 18.098 42.089 40.704l0.002 0.068v378.88c-0.745 22.674-19.304 40.772-42.091 40.772s-41.346-18.098-42.089-40.704l-0.002-0.068zM625.28 423.808v-252.587c-0.014-0.399-0.021-0.869-0.021-1.34 0-23.258 18.854-42.112 42.112-42.112s42.112 18.854 42.112 42.112c0 0.471-0.008 0.941-0.023 1.408l0.002-0.068v252.587c-0.745 22.674-19.304 40.772-42.091 40.772s-41.346-18.098-42.089-40.704l-0.002-0.068zM812.928 586.24v-420.992c-0.014-0.399-0.021-0.869-0.021-1.34 0-23.258 18.854-42.112 42.112-42.112s42.112 18.854 42.112 42.112c0 0.471-0.008 0.941-0.023 1.408l0.002-0.068v420.992c0.014 0.399 0.021 0.869 0.021 1.34 0 23.258-18.854 42.112-42.112 42.112s-42.112-18.854-42.112-42.112c0-0.471 0.008-0.941 0.023-1.408l-0.002 0.068zM223.573 538.453c0.027 0 0.060 0 0.093 0 11.627 0 22.154 4.712 29.774 12.331l150.955 150.955c7.738 7.434 18.268 12.012 29.867 12.012s22.129-4.578 29.881-12.026l-0.014 0.014 91.136-91.605c22.852-22.841 54.416-36.968 89.28-36.968s66.428 14.127 89.281 36.968l235.178 235.178c7.644 7.644 12.371 18.203 12.371 29.867 0 23.327-18.911 42.238-42.238 42.238-11.664 0-22.223-4.728-29.867-12.371l-234.965-235.179c-7.63-7.674-18.193-12.424-29.867-12.424s-22.237 4.75-29.865 12.422l-0.002 0.002-91.221 91.392c-22.852 22.841-54.416 36.968-89.28 36.968s-66.428-14.127-89.281-36.968l-150.996-151.124c-7.598-7.617-12.295-18.129-12.295-29.739 0-23.258 18.854-42.112 42.112-42.112 0.018 0 0.035 0 0.053 0h-0.003z" />
<glyph unicode="&#xe835;" glyph-name="eye3" d="M973.397 561.536c-62.037 100.992-203.093 270.464-450.688 270.464s-388.693-169.472-450.731-270.464c-18.409-29.338-29.329-64.999-29.329-103.211s10.92-73.872 29.809-104.033l-0.48 0.822c62.037-100.992 203.093-270.464 450.688-270.464s388.693 169.472 450.688 270.464c18.422 29.346 29.35 65.020 29.35 103.245 0 38.197-10.912 73.846-29.788 103.999l0.48-0.823zM905.131 396.971c-53.248-86.613-173.824-232.363-382.507-232.363s-329.259 145.749-382.507 232.363c-10.933 17.436-17.418 38.627-17.418 61.333s6.485 43.897 17.704 61.823l-0.286-0.489c53.248 86.613 173.824 232.363 382.507 232.363s329.259-145.579 382.507-232.363c10.96-17.452 17.461-38.668 17.461-61.402 0-22.677-6.469-43.844-17.661-61.755l0.286 0.491zM522.667 658.261c-110.422 0-199.936-89.514-199.936-199.936s89.514-199.936 199.936-199.936c110.422 0 199.936 89.514 199.936 199.936v0c0 110.422-89.514 199.936-199.936 199.936v0zM522.667 338.261c-66.226 0.049-119.893 53.746-119.893 119.979 0 66.262 53.716 119.979 119.979 119.979 66.232 0 119.93-53.668 119.979-119.889v-0.005c0-0.025 0-0.055 0-0.085 0-66.262-53.716-119.979-119.979-119.979-0.030 0-0.060 0-0.090 0h0.005z" />
<glyph unicode="&#xe836;" glyph-name="arrow_right_sm" d="M308.437-21.504c0.092-0.001 0.2-0.001 0.309-0.001 14.309 0 27.271 5.769 36.687 15.108l416.978 417.106c9.523 9.45 15.417 22.543 15.417 37.013s-5.895 27.564-15.414 37.010l-416.984 417.283c-9.567 10.12-23.084 16.419-38.073 16.419-28.913 0-52.352-23.439-52.352-52.352 0-14.999 6.308-28.526 16.416-38.070l0.025-0.024 380.459-380.16-380.459-380.075c-9.588-9.46-15.527-22.597-15.527-37.121 0-28.795 23.343-52.139 52.139-52.139 0.134 0 0.267 0.001 0.4 0.002h-0.020z" />
<glyph unicode="&#xe837;" glyph-name="download2" d="M745.728 630.869c-12.804 2.455-23.279 10.709-28.738 21.864l-0.105 0.237c-51.93 106.775-159.591 179.063-284.137 179.063-20.39 0-40.328-1.938-59.639-5.639l1.973 0.315c-128.321-24.502-227.512-125.233-249.422-252.403l-0.263-1.847c-2.827-15.925-4.443-34.258-4.443-52.969 0-21.243 2.083-41.999 6.057-62.075l-0.333 2.020c0.244-1.637 0.384-3.525 0.384-5.447 0-11.937-5.381-22.618-13.85-29.748l-0.059-0.048c-43.35-39.492-70.448-96.176-70.448-159.189 0-118.787 96.296-215.083 215.083-215.083 0.017 0 0.033 0 0.050 0h430.206c0.003 0 0.007 0 0.010 0 162.004 0 293.333 131.33 293.333 293.333 0 141.608-100.343 259.779-233.805 287.289l-1.896 0.327zM688.085 128.171h-430.208c-0.019 0-0.041 0-0.063 0-75.594 0-136.875 61.281-136.875 136.875 0 40.115 17.257 76.2 44.753 101.235l0.11 0.099c24.242 21.622 39.434 52.946 39.434 87.819 0 7.157-0.64 14.166-1.866 20.97l0.107-0.714c-2.737 13.61-4.304 29.256-4.304 45.267 0 14.153 1.224 28.021 3.572 41.502l-0.207-1.436c17.406 96.018 91.111 170.901 185.074 189.827l1.507 0.253c13.43 2.637 28.908 4.186 44.733 4.266h0.067c0.348 0.002 0.759 0.003 1.171 0.003 92.803 0 172.918-54.325 210.279-132.908l0.603-1.409c16.155-33.611 46.818-58.036 83.645-65.327l0.75-0.124c99.111-20.563 172.532-107.158 172.532-210.902 0-118.74-96.181-215.015-214.885-215.168h-0.015zM634.155 390.485c7.131-7.082 11.545-16.892 11.545-27.733s-4.414-20.651-11.543-27.731l-0.002-0.002-105.899-105.728c-14.069-14.067-33.49-22.781-54.946-22.827h-0.692c-21.465 0.046-40.886 8.76-54.955 22.827l-105.856 105.899c-7.098 7.098-11.488 16.903-11.488 27.733 0 21.661 17.56 39.221 39.221 39.221 10.831 0 20.636-4.39 27.733-11.488l66.773-66.773v195.371c0.717 21.045 17.95 37.833 39.104 37.833s38.387-16.788 39.102-37.768l0.002-0.065v-195.541l66.773 66.773c7.082 7.131 16.892 11.545 27.733 11.545s20.651-4.414 27.731-11.543l0.002-0.002z" />
<glyph unicode="&#xe838;" glyph-name="cancle" d="M43.051 448c0 258.994 209.956 468.949 468.949 468.949s468.949-209.956 468.949-468.949v0c0-258.994-209.956-468.949-468.949-468.949s-468.949 209.956-468.949 468.949v0zM110.037 448c-0.014-1.231-0.021-2.685-0.021-4.141 0-221.998 179.965-401.963 401.963-401.963s401.963 179.965 401.963 401.963c0 1.456-0.008 2.91-0.023 4.363l0.002-0.221c-2.341 220.21-181.4 397.821-401.941 397.821s-399.6-177.612-401.939-397.6l-0.002-0.221zM608.341 304.299l-96.341 96.384-96.341-96.384c-6.018-5.825-14.23-9.414-23.281-9.414-18.498 0-33.493 14.995-33.493 33.493 0 9.050 3.59 17.263 9.423 23.29l96.332 96.332-96.341 96.341c-6.059 6.061-9.807 14.433-9.807 23.68s3.748 17.619 9.807 23.68v0c6.056 6.069 14.43 9.824 23.68 9.824s17.624-3.755 23.679-9.824l96.342-96.3 96.341 96.341c6.056 6.069 14.43 9.824 23.68 9.824s17.624-3.755 23.679-9.824l0.001-0.001c6.049-6.065 9.789-14.436 9.789-23.68s-3.74-17.615-9.79-23.681l-96.383-96.383 96.384-96.299c6.301-6.098 10.212-14.632 10.212-24.079 0-18.498-14.995-33.493-33.493-33.493-9.447 0-17.981 3.911-24.070 10.203l-0.009 0.009z" />
<glyph unicode="&#xe839;" glyph-name="reply" d="M58.325 569.173l322.347 278.4c7.631 6.539 17.623 10.519 28.544 10.519 24.228 0 43.881-19.586 43.989-43.788v-146.655c294.4-3.371 527.531-62.336 527.531-341.333-6.358-115.918-64.527-217.059-151.556-281.392l-1.020-0.72c-5.431-4.185-12.331-6.707-19.82-6.707-18.027 0-32.64 14.613-32.64 32.64 0 2.914 0.382 5.74 1.099 8.428l-0.052-0.228c83.072 265.6-39.381 336.128-323.456 340.224v-161.024c-0.108-24.213-19.761-43.799-43.989-43.799-10.921 0-20.913 3.98-28.604 10.569l0.060-0.050-322.432 278.4c-9.347 8.112-15.223 20.010-15.223 33.28s5.876 25.168 15.169 33.234l0.054 0.046z" />
<glyph unicode="&#xe83a;" glyph-name="recycle1" d="M743.381 134.144c-50.169-37.957-110.45-65.361-176.045-77.709l-2.643-0.414c-16.98-2.956-36.532-4.646-56.48-4.646-18.421 0-36.505 1.441-54.147 4.217l1.955-0.253v-57.344c0-18.773-15.787-25.344-32.299-12.8-6.831 6.013-13.072 12.199-18.93 18.735l-0.184 0.209-121.557 123.307c-13.824 16.128-9.856 32.768 9.941 49.792l123.093 124.032c15.872 17.963 39.168 15.659 40.704-9.941l0.768-60.501c15.101-4.597 32.458-7.243 50.432-7.243 10.185 0 20.172 0.85 29.893 2.482l-1.051-0.146c40.525 8.154 76.205 24.866 106.494 48.228l-0.595-0.441 100.651-139.605zM905.899 392.021h56.149c18.773 0 25.344-15.787 12.8-32.299-5.991-6.818-12.149-13.044-18.655-18.892l-0.204-0.18-123.435-121.557c-16.128-13.824-32.768-9.856-49.792 9.941l-124.032 123.179c-17.963 15.872-15.659 39.168 9.941 40.704l61.867 0.853c4.358 14.708 6.865 31.607 6.865 49.091 0 10.192-0.852 20.185-2.489 29.911l0.146-1.050c-8.204 40.542-24.989 76.222-48.434 106.482l0.434-0.583 139.52 100.437c37.957-50.169 65.361-110.45 77.709-176.045l0.414-2.643c3.021-17.057 4.748-36.695 4.748-56.736 0-17.846-1.37-35.372-4.009-52.479l0.242 1.909zM567.936 840.704v57.344c0 18.773 15.787 25.259 32.299 12.8 6.812-6.084 13.054-12.366 18.906-19.001l0.209-0.242 121.557-123.179c13.824-16.128 9.856-32.768-9.941-49.792l-123.136-123.861c-15.872-17.963-39.168-15.659-40.704 9.941l-0.768 60.757c-14.432 4.167-31.008 6.564-48.145 6.564-10.118 0-20.041-0.836-29.704-2.442l1.049 0.144c-40.527-8.138-76.211-24.852-106.491-48.226l0.592 0.439-100.693 139.563c50.169 37.957 110.45 65.361 176.045 77.709l2.643 0.414c16.996 2.993 36.564 4.704 56.532 4.704 17.554 0 34.8-1.322 51.642-3.873l-1.892 0.236zM199.467 217.771c-37.957 50.169-65.361 110.45-77.709 176.045l-0.414 2.643c-2.977 16.984-4.678 36.539-4.678 56.492 0 18.038 1.391 35.752 4.071 53.039l-0.246-1.926h-58.539c-18.773 0-25.344 15.787-12.8 32.299 6.078 6.774 12.36 12.988 18.993 18.814l0.25 0.215 123.008 121.557c16.128 13.824 32.768 9.856 49.792-9.941l124.032-123.093c17.963-15.872 15.659-39.168-9.941-40.704l-59.435-0.725c-4.41-14.857-6.948-31.927-6.948-49.59 0-10.135 0.836-20.075 2.442-29.754l-0.144 1.051c8.138-40.527 24.852-76.211 48.226-106.491l-0.439 0.592-139.52-100.565z" />
<glyph unicode="&#xe83b;" glyph-name="recycle" d="M529.92-7.296l-101.76 101.803c-8.453 8.435-13.682 20.097-13.682 32.981s5.229 24.546 13.682 32.981l101.761 101.718c8.341 7.889 19.627 12.739 32.047 12.739 25.779 0 46.677-20.898 46.677-46.677 0-12.409-4.842-23.686-12.74-32.047l0.021 0.022-22.016-22.016c124.365 29.138 215.557 139.102 215.557 270.365 0 102.477-55.581 191.972-138.241 239.985l-1.327 0.711c-14.129 8.215-23.476 23.283-23.476 40.533 0 25.808 20.922 46.73 46.73 46.73 8.557 0 16.578-2.3 23.476-6.316l-0.223 0.12c112.066-65.203 186.2-184.74 186.2-321.592 0-182.364-131.643-333.982-305.084-365.008l-2.247-0.333 20.651-20.608c8.464-8.454 13.7-20.138 13.7-33.045 0-25.793-20.91-46.703-46.703-46.703-12.886 0-24.553 5.219-33.003 13.658v0zM327.979 122.709c-112.211 65.168-186.458 184.784-186.458 321.74 0 184.433 134.647 337.418 311.003 366.017l2.133 0.285-26.496 26.496c-8.468 8.452-13.707 20.137-13.707 33.045 0 25.785 20.903 46.688 46.688 46.688 12.877 0 24.536-5.213 32.982-13.643l101.802-101.844c8.43-8.438 13.643-20.090 13.643-32.96s-5.213-24.522-13.644-32.96l-101.802-101.845c-8.529-9.018-20.578-14.631-33.938-14.631-25.779 0-46.677 20.898-46.677 46.677 0 13.37 5.622 25.428 14.63 33.938l0.022 0.021 12.8 12.8c-119.628-31.279-206.475-138.39-206.475-265.785 0-0.85 0.004-1.699 0.012-2.547l-0.001 0.13c0.199-102.466 55.724-191.919 138.284-240.098l1.322-0.712c14.152-8.199 23.519-23.272 23.519-40.533 0-25.785-20.903-46.687-46.687-46.687-8.524 0-16.514 2.284-23.392 6.274l0.224-0.12z" />
</font>
</defs>
</svg>
