<svg xmlns="http://www.w3.org/2000/svg" width="131.001" height="20" viewBox="0 0 131.001 20">
  <g id="_2stat" data-name="2stat" transform="translate(-82 -1157)">
    <g id="Page-1" transform="translate(82 1156.5)">
      <g id="Core" transform="translate(0 0.5)">
        <g id="star">
          <path id="Shape" d="M10,15.273,16.18,19l-1.635-7.029L20,7.244l-7.191-.617L10,0,7.191,6.627,0,7.244l5.455,4.727L3.82,19Z" fill="#5283da" fill-rule="evenodd"/>
        </g>
      </g>
    </g>
    <g id="Page-1-2" data-name="Page-1" transform="translate(110 1156.5)">
      <g id="Core-2" data-name="Core" transform="translate(0 0.5)">
        <g id="star-2" data-name="star">
          <path id="Shape-2" data-name="Shape" d="M10,15.273,16.18,19l-1.635-7.029L20,7.244l-7.191-.617L10,0,7.191,6.627,0,7.244l5.455,4.727L3.82,19Z" fill="#5283da" fill-rule="evenodd"/>
        </g>
      </g>
    </g>
    <g id="_172558_star_icon" data-name="172558_star_icon" transform="translate(194.133 1158.132)">
      <rect id="Rectangle_33" data-name="Rectangle 33" width="19" height="19" transform="translate(-0.132 -0.132)" fill="none"/>
      <path id="Path_18559" data-name="Path 18559" d="M11.419,3.553l2.1,5.488,5.821.317-4.525,3.709,1.5,5.684-4.894-3.2-4.894,3.2,1.5-5.684L3.5,9.358l5.821-.317Z" transform="translate(-2.442 -2.478)" fill="none" stroke="#5283da" stroke-miterlimit="10" stroke-width="1.5"/>
    </g>
    <g id="_172558_star_icon-2" data-name="172558_star_icon" transform="translate(167.133 1158.132)">
      <rect id="Rectangle_33-2" data-name="Rectangle 33" width="19" height="19" transform="translate(-0.132 -0.132)" fill="none"/>
      <path id="Path_18559-2" data-name="Path 18559" d="M11.419,3.553l2.1,5.488,5.821.317-4.525,3.709,1.5,5.684-4.894-3.2-4.894,3.2,1.5-5.684L3.5,9.358l5.821-.317Z" transform="translate(-2.442 -2.478)" fill="none" stroke="#5283da" stroke-miterlimit="10" stroke-width="1.5"/>
    </g>
    <g id="_172558_star_icon-3" data-name="172558_star_icon" transform="translate(139.133 1158.132)">
      <rect id="Rectangle_33-3" data-name="Rectangle 33" width="19" height="19" transform="translate(-0.132 -0.132)" fill="none"/>
      <path id="Path_18559-3" data-name="Path 18559" d="M11.419,3.553l2.1,5.488,5.821.317-4.525,3.709,1.5,5.684-4.894-3.2-4.894,3.2,1.5-5.684L3.5,9.358l5.821-.317Z" transform="translate(-2.442 -2.478)" fill="none" stroke="#5283da" stroke-miterlimit="10" stroke-width="1.5"/>
    </g>
  </g>
</svg>
