<svg xmlns="http://www.w3.org/2000/svg" width="1455.788" height="1047.793" viewBox="0 0 1455.788 1047.793">
  <g id="_01-01" data-name="01-01" transform="translate(-50.422 5.4)">
    <g id="Group_18" data-name="Group 18" transform="translate(50.422 -5.4)">
      <path id="Path_1" data-name="Path 1" d="M1718.346,1222.224c-91.83,0-1333.338-2.677-1333.338-2.826-.514-1.2-157.6-193.742,40.2-395.045,98.015-99.744-90.008-228.965,0-339.919C579.4,294.379,731.948,401.416,859.031,347.962c22.457-9.438,44.989-24.62,67.545-47.926a251.071,251.071,0,0,1,41.506-34.46q3.43-2.287,6.922-4.455a276.234,276.234,0,0,1,27.693-15.033q9.6-4.527,19.557-8.372h.006a320.348,320.348,0,0,1,32.415-10.553,367.055,367.055,0,0,1,48.347-9.487q10.783-1.4,21.739-2.218c142.006-10.677,301.808,49.37,384.282,137.135,16.6,17.673,92.1,109.113,32.589,234.8-37.577,79.356,119.846,155.143,175.784,245.765C1859.64,1063.549,1719.636,1219.219,1718.346,1222.224Z" transform="translate(-325.37 -176.748)" fill="#ebf3fa"/>
      <g id="Group_2" data-name="Group 2" transform="translate(721.461 267.588)" opacity="0.8">
        <path id="Path_2" data-name="Path 2" d="M1839.825,827.794a181.64,181.64,0,0,1-13.85,29.559A180.563,180.563,0,0,1,1490.047,778.4a177.036,177.036,0,0,1,.229-27.538,181.787,181.787,0,0,1,27.223-81.11c.074-.124.155-.242.229-.366a181.01,181.01,0,0,1,102.9-76.853c4.406-1.264,8.88-2.361,13.379-3.278a179.544,179.544,0,0,1,97.841,7.219q6.469,2.352,12.648,5.143a179.233,179.233,0,0,1,73.166,60.406h.006a181.334,181.334,0,0,1,28.871,65.512q1.664,7.576,2.677,15.3a179.6,179.6,0,0,1-9.4,84.958Z" transform="translate(-1489.62 -585.563)" fill="#d7e5ff"/>
        <g id="Group_1" data-name="Group 1" transform="translate(27.88 3.692)">
          <path id="Path_3" data-name="Path 3" d="M1657.257,671.5c-10.664,8.26-7.839,30.364-26.305,17.909s-30.055-19.235-35.285-8.359,11.129,16.824,6.823,28.672-13.069,13.1-22.3,3.371-9.512-19.092-24.471-18.783-21.348-5.844-20.616-17.078a15.834,15.834,0,0,0-.49-5.211c.074-.124.155-.242.229-.366a181.012,181.012,0,0,1,102.9-76.853c4.406-1.264,8.88-2.361,13.379-3.278,5.218,2.119,10.813,6.42,13.775,15.046,6.513,18.981,17.079,14.513,8.105,30.414s-5.28,19.8,4.511,22.718,21.082,7.021,19.545,14.767S1667.928,663.236,1657.257,671.5Z" transform="translate(-1534.61 -591.52)" fill="#aec3ff"/>
          <path id="Path_4" data-name="Path 4" d="M1976.667,915.4a181.67,181.67,0,0,1-13.85,29.559,179.491,179.491,0,0,1-50.436,55.35,20.627,20.627,0,0,1-13.435-5.292c-18.082-16.155,5.881-33.308,18.5-41.661s-10.807-11.117-22.618-27.384,15.845-38.315-1.927-39.5-39.387-2.342-43.006-21.379,15.076-15.12,11.8-31.157,12.189-19.043,28.729-14.463,18.578-7.616,39.077-2.082,10.851,30.767,33.469,37.076,19.78,11.024,19.78,11.024A10.942,10.942,0,0,1,1987,868.12,180.259,180.259,0,0,1,1976.667,915.4Z" transform="translate(-1654.341 -676.862)" fill="#aec3ff"/>
          <path id="Path_5" data-name="Path 5" d="M2013.155,787.005c-21.534,2.25-20.078-24.632-38.358-23.033-18.435,1.6-10.547-11.5-19.668-25.035s-39.9-6.2-33.648-19.9,23.436-2.981,31.486-12.821,25.078-.465,25.078-.465a13.154,13.154,0,0,1,3.557.446s0-.006.006,0a181.336,181.336,0,0,1,28.871,65.513Q2012.133,779.278,2013.155,787.005Z" transform="translate(-1681.428 -633.431)" fill="#aec3ff"/>
          <path id="Path_6" data-name="Path 6" d="M1824.129,651.031s14.618-10.349.874-19.972-15.411-4.17-26.795-9.741-19.377,1.909-14.128,15.151,5.453,35.074,17.215,27.755S1814.319,648.583,1824.129,651.031Z" transform="translate(-1628.862 -602.145)" fill="#aec3ff"/>
        </g>
      </g>
      <path id="Path_7" data-name="Path 7" d="M485.845,1794.252H548.8c3.371-2.863-2.336-9.363-8.3-9.8a36.819,36.819,0,0,0-9.611,1.134c-.868-11.507-5.813-63.239-24.459-61.156-20.964,2.33,0,22.78,5.924,34.888,4.393,8.967,9.023,21.832,11.136,27.9-1.7.366-3.464.731-5.267,1.06-2.776-8.533-13.119-37.23-26.268-35.558-15.436,1.958-9.233,13.466,1.71,20.295,8.025,5.025,17.884,12.164,22.569,15.61a66.5,66.5,0,0,1-12.313.985C493.151,1789.363,487.89,1792.542,485.845,1794.252Z" transform="translate(-385.209 -751.087)" fill="#a8d29f"/>
      <path id="Path_8" data-name="Path 8" d="M2068.205,1797.3h-58.479c-3.136-2.658,2.169-8.694,7.708-9.1a34.389,34.389,0,0,1,8.924,1.053c.805-10.689,5.4-58.739,22.718-56.806,19.476,2.163,0,21.162-5.5,32.409-4.078,8.329-8.378,20.276-10.349,25.915,1.58.341,3.216.676,4.889.985,2.584-7.926,12.183-34.584,24.4-33.029,14.339,1.822,8.577,12.505-1.586,18.851-7.455,4.666-16.614,11.3-20.964,14.5a62.048,62.048,0,0,0,11.44.917C2061.426,1792.759,2066.316,1795.714,2068.205,1797.3Z" transform="translate(-965.61 -754.136)" fill="#a8d29f"/>
      <g id="Group_3" data-name="Group 3" transform="translate(1087.513 567.249)">
        <path id="Path_9" data-name="Path 9" d="M2163.255,1210.349s1.394-13.844-5.844-13.366-9.159,3.792-8.347,6.457,7.852,11.464,7.852,11.464Z" transform="translate(-2106.407 -1117.755)" fill="#ffb27d"/>
        <path id="Path_10" data-name="Path 10" d="M2279.473,1244.959s-8.012,9.419-25.245,20.282q-2.444,1.553-5.137,3.117a191.42,191.42,0,0,1-23.61,11.619c-1,.409-2.169.861-3.489,1.338-10.33,3.73-29.33,9.016-41.1,9.493-1.022.043-2,.043-2.9.006-17.921-.725-20.108-70.284-20.108-70.284s1.995-6.959,11.2-5.205c0,0,13.986,39.288,18.993,42.491,4.449,2.844,30.036-35.935,52.059-38.65C2254.959,1217.328,2279.473,1244.959,2279.473,1244.959Z" transform="translate(-2109.825 -1124.628)" fill="#739af0"/>
        <path id="Path_11" data-name="Path 11" d="M2249.791,1807.1s1.326,15.312-1.915,16.905l-41.426-.087s0-4.784,6.656-5.843,18.343-4.958,20.319-13.633S2249.791,1807.1,2249.791,1807.1Z" transform="translate(-2128.297 -1347.546)" fill="#1c3154"/>
        <path id="Path_12" data-name="Path 12" d="M2227.241,1482.227c.2,10.014.688,20.344,1.63,29.627,4.474,44.047,6.048,97.265,6.692,107.526,1.116,17.81,4.635,46.266,4.635,46.266s6.978,6.624,20.58,3.464c0,0,11.272-40.98,13.788-84.134.037-.706.074-1.419.112-2.132.291-5.707.595-12.226.911-19.26,2.07-47.114,4.326-117.107,4.326-117.107l-51.985-12.208C2227.923,1434.258,2226.727,1457.267,2227.241,1482.227Z" transform="translate(-2136.156 -1208.005)" fill="#2a4e96"/>
        <path id="Path_13" data-name="Path 13" d="M2227.241,1482.219c13.174,22.73,38.284,64.608,48.347,81.345,2.07-47.114,4.326-117.107,4.326-117.107l-51.985-12.208C2227.923,1434.25,2226.727,1457.259,2227.241,1482.219Z" transform="translate(-2136.156 -1207.998)" fill="#233862"/>
        <path id="Path_14" data-name="Path 14" d="M2236.1,1311.333c-10.33,3.731-29.33,9.016-41.1,9.493,1.8-.334,14.916-2.937,19.762-8.787,5.2-6.3,13.973-23.387,20.951-16.409C2239,1298.909,2238.037,1305.4,2236.1,1311.333Z" transform="translate(-2123.943 -1154.652)" fill="#6385db"/>
        <path id="Path_15" data-name="Path 15" d="M2395.152,1499.234s3.229,12.654,2.7,15.467-3.68,12.332-5.645,14.7-2.045-10.268-3.352-12.257-.6,4.716-1.648,5.267-2.795-5.075-3.57-7.071,2.789-8.936,3.124-13.912S2395.152,1499.234,2395.152,1499.234Z" transform="translate(-2195.642 -1232.418)" fill="#ffb27d"/>
        <path id="Path_16" data-name="Path 16" d="M2426.528,1780.7s7.374,6.73,5.936,11.508-8.093,7.969-8.992,13.813-4.492,9.028-7.733,9.028h-15.43s-2.386-4.115,3.371-5.354,7.926-8.105,7.566-14.482a112.314,112.314,0,0,1,.539-14.872l12.226-2.832Z" transform="translate(-2201.84 -1338.547)" fill="#1c3154"/>
        <path id="Path_17" data-name="Path 17" d="M2241.64,1445.961s48.663,104.118,74.56,149.8,33.99,58.436,33.99,58.436,14.835-5.844,16.186-9.828c0,0-9.9-88.2-27.248-109.7-9.8-12.146-21.311-48.608-21.849-61.355s-11.91-43.179-11.91-43.179Z" transform="translate(-2141.681 -1206.435)" fill="#2a4e96"/>
        <path id="Path_18" data-name="Path 18" d="M2226.965,1359.5s15.845,17.053,42.77,22.2c11.818,2.262,35.805,4.449,41.754-3.966,1.394-1.977,1.407-4.9,1.1-9.469-.8-11.867-3.786-34.814,9.692-80.924a78.24,78.24,0,0,0,2.59-12.325c2.944-23.591,2.621-41.395-17.841-50.907-30.668-14.253-43.254-2.529-43.254-2.529s-16.31,7.622-23.765,29.831C2225.112,1295.849,2226.965,1359.5,2226.965,1359.5Z" transform="translate(-2136.072 -1125.392)" fill="#739af0"/>
        <path id="Path_19" data-name="Path 19" d="M2312.116,1203.316a22.753,22.753,0,0,1-22.9,1.5c-.67-.335-.583-4.914-.415-9.413.167-4.412.583-8.75.583-8.75l10.912-7.163,10.41-6.829C2309.451,1196.152,2314.446,1201.649,2312.116,1203.316Z" transform="translate(-2159.57 -1108.51)" fill="#ffb27d"/>
        <path id="Path_20" data-name="Path 20" d="M2308.942,1186.553s-7.083,10.628-20.072,13.044c.168-4.412.638-9.276.638-9.276l10.857-6.63Z" transform="translate(-2159.643 -1112.704)" fill="#ed985f"/>
        <path id="Path_21" data-name="Path 21" d="M2272.289,1164.541s26.4,9.853,32.273-6.414,13.236-25.946-3.371-32.924-22.141-1.946-25.444,3.006S2265.578,1161.561,2272.289,1164.541Z" transform="translate(-2152.259 -1089.156)" fill="#ffb27d"/>
        <path id="Path_22" data-name="Path 22" d="M2318.99,1120.457c.3-.235.917-.353,2.206-.167a5.275,5.275,0,0,0-2.243-1.14c.081-1.822-.242-5.137-3.129-6.494a3.9,3.9,0,0,1,1.308,3.117c-2.808-4.313-9.841-8.44-31.071-10.919-27.985-3.266-22.389,16.167-19.235,18.974s13.267-1.184,19.811.657,5.912,11.693,7.9,13.453,1.568-.744,4.889-1.518,2.615,4.338,1.084,7.448,1.8,8.279,1.8,8.279l5.137-3.724c5.137-3.724,12.945-22.259,11.836-26.758Z" transform="translate(-2150.241 -1082.582)" fill="#2c3a64"/>
        <path id="Path_23" data-name="Path 23" d="M2355.142,1403.325c-.8-11.867-3.786-34.814,9.692-80.924a78.1,78.1,0,0,0,2.59-12.325h0c-10.014-3.3-28.257,4.04-28.257,4.04S2334.873,1375.074,2355.142,1403.325Z" transform="translate(-2178.628 -1160.447)" fill="#6385db"/>
        <path id="Path_24" data-name="Path 24" d="M2338.139,1233.43s12.319,4.48,20.183,37.106c5.193,21.552,14.754,53.237,15.833,63.195s-10.931,68.245-10.931,68.245-1.692,1.233-5.844.4a9.634,9.634,0,0,1-5.819-3.483s-2.869-38.848-2.132-57.19c.31-7.622-35.278-55.814-54.488-62.024C2287.4,1277.241,2338.139,1233.43,2338.139,1233.43Z" transform="translate(-2161.662 -1131.622)" fill="#739af0"/>
        <path id="Path_25" data-name="Path 25" d="M2086.99,1129.305a409.908,409.908,0,0,1,76.71,6.556l4.294-10.82,4.71-11.854s-41.259-17.76-66.059-42.5Z" transform="translate(-2082.865 -1069.728)" fill="#aec3ff"/>
        <path id="Path_26" data-name="Path 26" d="M2104.678,1069.517l-20.45,60.356h0a5.437,5.437,0,0,1-3.582-7.033l18-50.714a4.494,4.494,0,0,1,6.036-2.609Z" transform="translate(-2080.332 -1069.138)" fill="#2e63c5"/>
        <path id="Path_27" data-name="Path 27" d="M2147.483,1207.188h0a7.4,7.4,0,0,0,8.676-5.781l7.039-35.229a7.4,7.4,0,0,0-5.781-8.675h0a7.4,7.4,0,0,0-8.676,5.781l-7.039,35.229A7.386,7.386,0,0,0,2147.483,1207.188Z" transform="translate(-2103.617 -1102.691)" fill="#2e63c5"/>
        <path id="Path_28" data-name="Path 28" d="M2086.99,1161.029a409.939,409.939,0,0,1,76.71,6.556l4.294-10.82C2129.382,1148.877,2086.99,1161.029,2086.99,1161.029Z" transform="translate(-2082.865 -1101.452)" fill="#739af0"/>
        <path id="Path_29" data-name="Path 29" d="M2192.45,1155.986l11.129,1.958c-.167.006,10.337,2.045,13.782-7.269a7.542,7.542,0,0,0,.663-2.008c2.677-11.607-3.693-13.745-3.693-13.745l-14.321-5.583-4.548,16.105v.056Z" transform="translate(-2122.973 -1092.034)" fill="#2e63c5"/>
        <path id="Path_30" data-name="Path 30" d="M2192.45,1165.867l11.129,1.958c-.167.006,10.337,2.045,13.782-7.269-6.3-4.579-21.906-5.236-21.906-5.236v.056Z" transform="translate(-2122.973 -1101.915)" fill="#00379c"/>
        <path id="Path_31" data-name="Path 31" d="M2149.676,1182.54s5.447,2.169,4.443,4.567-7.92,5.7-9.011,3.8S2146.249,1180.513,2149.676,1182.54Z" transform="translate(-2104.863 -1112.149)" fill="#ffb27d"/>
        <path id="Path_32" data-name="Path 32" d="M2171.248,1207.147a76.132,76.132,0,0,0,1.091-8.13c.062-2.559.366-4.647-.235-4.722s-1.042.4-1.283,1.221-1.189,5.924-1.189,5.924l.477,4.926Z" transform="translate(-2114.294 -1116.735)" fill="#ffb27d"/>
      </g>
      <g id="Group_5" data-name="Group 5" transform="translate(271.097 454.463)">
        <path id="Path_33" data-name="Path 33" d="M1284.226,1207.04l-30.842,366.726s-3.229,22.228,13.3,22.271c27.185.062,135.326,0,135.326,0s-20.462-4.629-20.214-15.04c.291-12.27,36.047-377.428,36.047-377.428Z" transform="translate(-949.313 -1007.479)" fill="#7599ea"/>
        <path id="Path_34" data-name="Path 34" d="M1417.641,1585.443c-5.348.018-110.036.192-136.516-.149-11.538-.142-13.565-10.261-13.658-16.806a32.4,32.4,0,0,1,.353-5.46l.8-9.53,2.045-24.292,1.8-21.466,2.324-27.582,1.952-23.281,21.918-260.587,133.621-3.47s-15.058,152.819-25.71,264.051c-1.19,12.394-2.318,24.279-3.365,35.371q-.511,5.317-.985,10.374c-.985,10.522-1.89,20.189-2.677,28.722-.415,4.5-.8,8.676-1.14,12.505-1.357,15-2.156,24.583-2.169,26.4a15.477,15.477,0,0,0,.26,2.968C1398.691,1584.916,1415.633,1585.443,1417.641,1585.443Z" transform="translate(-954.765 -1003.39)" fill="#90aff4"/>
        <path id="Path_35" data-name="Path 35" d="M779.65,887.13l75.13,301.778,10.286,41.327,34.987,140.555h650.075L1421.16,887.13Z" transform="translate(-769.239 -887.13)" fill="#aec3ff"/>
        <path id="Path_36" data-name="Path 36" d="M773.26,887.13,762.85,890.6l116.977,490.687,13.844-10.5Z" transform="translate(-762.85 -887.13)" fill="#90aff4"/>
        <path id="Path_37" data-name="Path 37" d="M951.62,1678.127h646.071l17.841-10.5H965.464Z" transform="translate(-834.643 -1183.971)" fill="#7599ea"/>
        <rect id="Rectangle_2" data-name="Rectangle 2" width="139.886" height="6.649" transform="translate(483.742 588.702) rotate(180)" fill="#aec3ff"/>
        <path id="Path_38" data-name="Path 38" d="M1404.917,1684.57l-.725,5.082-131.552,26.578,1.8-21.466.861-10.194Z" transform="translate(-956.734 -1190.413)" fill="#5888dd"/>
        <path id="Path_39" data-name="Path 39" d="M1417.643,1800.887c-5.348.018-110.036.192-136.516-.149-11.538-.143-13.564-10.262-13.657-16.805L1398.4,1759.3c-1.357,15-2.156,24.583-2.169,26.4a15.418,15.418,0,0,0,.26,2.968C1398.693,1800.36,1415.635,1800.887,1417.643,1800.887Z" transform="translate(-954.768 -1218.835)" fill="#5888dd" opacity="0.4"/>
        <path id="Path_40" data-name="Path 40" d="M779.65,887.13h641.51l104.081,388.712H876.419Z" transform="translate(-769.239 -887.13)" fill="#aec3ff"/>
        <path id="Path_41" data-name="Path 41" d="M1511.3,1271.776H910.648l-21.466-85.5-8.3-33.085L877.5,1139.7l-22.061-87.871-1.146-4.573L842.632,1000.8l-5.218-20.778L832.965,962.3,822.53,920.74h591.986l11.458,41.556,4.889,17.729,5.726,20.778,37.745,136.918v.007l3.2,11.6,1.487,5.385,26.064,94.52Z" transform="translate(-785.548 -899.913)" fill="#739af0"/>
        <path id="Path_42" data-name="Path 42" d="M1425.974,962.292H832.965L822.53,920.73h591.992Z" transform="translate(-785.548 -899.909)" fill="#607cf4"/>
        <g id="Group_4" data-name="Group 4" transform="translate(61.313 34.411)">
          <path id="Path_43" data-name="Path 43" d="M861.952,947.853c-.713-2.869,1.029-5.193,3.9-5.193a7.089,7.089,0,0,1,6.488,5.193c.713,2.869-1.029,5.193-3.9,5.193A7.093,7.093,0,0,1,861.952,947.853Z" transform="translate(-861.793 -942.66)" fill="#e9f3fe"/>
          <path id="Path_44" data-name="Path 44" d="M889.812,947.853c-.713-2.869,1.029-5.193,3.9-5.193a7.089,7.089,0,0,1,6.488,5.193c.713,2.869-1.029,5.193-3.9,5.193A7.094,7.094,0,0,1,889.812,947.853Z" transform="translate(-872.388 -942.66)" fill="#e9f3fe"/>
          <path id="Path_45" data-name="Path 45" d="M919.812,947.853c-.713-2.869,1.029-5.193,3.9-5.193a7.089,7.089,0,0,1,6.488,5.193c.713,2.869-1.029,5.193-3.9,5.193A7.081,7.081,0,0,1,919.812,947.853Z" transform="translate(-883.798 -942.66)" fill="#e9f3fe"/>
        </g>
      </g>
      <path id="Path_46" data-name="Path 46" d="M1566.257,387.417c24.279-28.505,61.714-85.764,86.916-115.081a9.3,9.3,0,0,0-7.083-15.349h-45.863l43.26-97.823a3.836,3.836,0,0,0-6.581-3.848l-104.6,140a5.788,5.788,0,0,0,5.348,9.208l51.923-6.4-30.891,84.859A4.457,4.457,0,0,0,1566.257,387.417Z" transform="translate(-783.949 -153.746)" fill="#00184f"/>
      <path id="Path_47" data-name="Path 47" d="M1204.351,698.593c5.459-28.015,8.911-80.044,14.68-108.946a7.09,7.09,0,0,0-10.448-7.548l-30.463,17.153-7.858-81.153a2.922,2.922,0,0,0-5.807-.093l-17.109,132.109a4.411,4.411,0,0,0,7,4.115l32.093-23.666,11.222,67.917A3.4,3.4,0,0,0,1204.351,698.593Z" transform="translate(-637.97 -291.313)" fill="#aec3ff"/>
      <g id="Group_9" data-name="Group 9" transform="translate(424.638 259.591)">
        <path id="Path_48" data-name="Path 48" d="M1621.241,1159.84l-521.912,43.973c-39.628,3.34-68.307-37.063-52.084-73.37l221.114-494.857c16.775-37.54,68.338-41.884,91.155-7.678l300.8,450.884C1682.384,1111.871,1660.869,1156.5,1621.241,1159.84Z" transform="translate(-1022.794 -584.827)" fill="#e6efff"/>
        <g id="Group_6" data-name="Group 6">
          <path id="Path_49" data-name="Path 49" d="M1610.731,1167.409l-521.912,43.972a72.051,72.051,0,0,1-71.833-101.193L1238.1,615.33a72.054,72.054,0,0,1,125.727-10.59l300.8,450.884a72.047,72.047,0,0,1-53.893,111.784Zm-309.567-555a32.015,32.015,0,0,0-26.888,19.086l-221.114,494.857A32.434,32.434,0,0,0,1085.5,1171.9l521.912-43.972a32.427,32.427,0,0,0,24.254-50.312l-300.8-450.885A32.036,32.036,0,0,0,1301.164,612.406Z" transform="translate(-1010.624 -572.658)" fill="#00184f"/>
        </g>
        <g id="Group_8" data-name="Group 8" transform="translate(251.531 147.113)">
          <g id="Group_7" data-name="Group 7">
            <path id="Path_50" data-name="Path 50" d="M1443.306,1162.249a47.717,47.717,0,0,1,2.033-18.956,43.764,43.764,0,0,1,8.93-15.684,46.905,46.905,0,0,1,15-11.117,58.558,58.558,0,0,1,20.536-5.274,59.867,59.867,0,0,1,21.28,1.747,46.585,46.585,0,0,1,16.8,8.44,43.783,43.783,0,0,1,11.427,13.968,47.848,47.848,0,0,1,5.174,18.349,46.735,46.735,0,0,1-2.045,18.8,44.051,44.051,0,0,1-8.942,15.535,46.527,46.527,0,0,1-15.151,11.129,59.769,59.769,0,0,1-20.691,5.286,58.477,58.477,0,0,1-21.125-1.76,46.8,46.8,0,0,1-16.644-8.452,43.981,43.981,0,0,1-11.414-13.819A46.7,46.7,0,0,1,1443.306,1162.249ZM1524,1067.828l-75.179,6.333L1416.53,818.19l96.478-8.13Z" transform="translate(-1416.53 -810.06)" fill="#00184f"/>
          </g>
        </g>
      </g>
      <g id="Group_13" data-name="Group 13" transform="translate(213.839 568.828)">
        <path id="Path_51" data-name="Path 51" d="M936.75,1244.434s1.636-3.681,2.7-5.422,5.589-6.847,6.358-5.695,3.854,8.936,2.219,11.117.105,5.967-8.037,8.266Z" transform="translate(-771.729 -1133.094)" fill="#ffb27d"/>
        <path id="Path_52" data-name="Path 52" d="M790.68,1213.86s41.7,34.807,57.952,31.585c12.716-2.522,32.812-8.892,32.812-8.892s5.3,5.044,3.8,11.092c0,0-25.605,24.093-43.849,24.248-28.518.242-41.965-14.129-41.965-14.129Z" transform="translate(-716.176 -1125.757)" fill="#6385db"/>
        <path id="Path_53" data-name="Path 53" d="M672.67,1802.454s1.208,19.527,4.988,19.805c.5.037,19.16.037,19.16.037l23.821-.136s-.155-5.739-7.12-6.953-18.615-6.1-22.835-15.306C686.247,1790.216,672.67,1802.454,672.67,1802.454Z" transform="translate(-671.294 -1347.223)" fill="#113c68"/>
        <path id="Path_54" data-name="Path 54" d="M670.45,1660.545s7.238,2.423,12.9,2.423a47.313,47.313,0,0,0,12.034-1.717s1.363-13.181,8.861-42.225c3.935-15.226,9.549-34.8,17.537-59.124,22.092-67.223,28.809-106.547,29.422-110.272.031-.2.043-.291.043-.291l-.074-.031-67.923-29.819s8.4,92.648-2.318,128.212a150.278,150.278,0,0,0-3.885,17.035C670.295,1603.355,670.45,1660.545,670.45,1660.545Z" transform="translate(-670.45 -1203.963)" fill="#2a4e96"/>
        <path id="Path_55" data-name="Path 55" d="M710.646,1619.023c3.935-15.226,9.549-34.8,17.537-59.124,22.092-67.223,28.809-106.548,29.423-110.272-.006-.111-.013-.217-.025-.328l-67.923-29.819s8.4,92.649-2.318,128.212C685.847,1552.662,710.646,1619.023,710.646,1619.023Z" transform="translate(-676.849 -1203.959)" fill="#233862"/>
        <path id="Path_56" data-name="Path 56" d="M758.28,1802.454s1.208,19.527,4.988,19.805c.5.037,19.161.037,19.161.037l23.821-.136s-.155-5.739-7.12-6.953-18.615-6.1-22.835-15.306C771.857,1790.216,758.28,1802.454,758.28,1802.454Z" transform="translate(-703.853 -1347.223)" fill="#15447c"/>
        <path id="Path_57" data-name="Path 57" d="M776.1,1423a967.322,967.322,0,0,1-9.506,133.751c-10.386,73.717-6.866,105-6.866,105s-7.139,2.312-10.014,2.547a45.493,45.493,0,0,1-14.86-1.723s-14.866-73.742-10.6-110.637S703.9,1425.336,703.9,1425.336Z" transform="translate(-683.171 -1205.298)" fill="#2a4e96"/>
        <path id="Path_58" data-name="Path 58" d="M742.7,1178.077l13.261,8.694,12.078-3.414c2.206-3.148,2.795-9.221,2.826-14.476a90.04,90.04,0,0,0-.477-9.642l-17.89-7.895-6.674-2.943c.019.105.521,5.478.589,6.265C747.657,1168.6,742.7,1178.077,742.7,1178.077Z" transform="translate(-697.928 -1100.862)" fill="#ffb27d"/>
        <path id="Path_59" data-name="Path 59" d="M769.539,1350.381c-16.5,15.932-78.953,13.255-82.8-4.3s4.2-149.435,32.384-157.721c5.85-1.716,37.125,8.39,37.125,8.39a198.206,198.206,0,0,1,8.124,29.181c.626,3.179,2.448,36.883,3.811,68.412.638,14.749,1.177,29.02,1.45,39.474C769.88,1343.6,769.893,1350.034,769.539,1350.381Z" transform="translate(-676.302 -1115.985)" fill="#739af0"/>
        <path id="Path_60" data-name="Path 60" d="M750.537,1156.708c3.631,6.135,16.359,11.507,23.108,13.968a90.012,90.012,0,0,0-.477-9.642l-17.89-7.895C751.331,1153.083,748.92,1153.969,750.537,1156.708Z" transform="translate(-700.715 -1102.663)" fill="#fca56b"/>
        <path id="Path_61" data-name="Path 61" d="M773.591,1135.011s-28.821,8.991-34.144-9.041-12.629-29.02,5.552-35.52,23.8-.682,27.043,4.908S780.953,1132.21,773.591,1135.011Z" transform="translate(-694.39 -1077.731)" fill="#ffb27d"/>
        <path id="Path_62" data-name="Path 62" d="M763.215,1087.571s-1.84,20.989-6.178,20.078-9.115-2.863-8.484,3.464-4.22,17.172-10.479,17.147c-13.422-.056-28-34.5-24.328-41.029C724.349,1068.385,778.54,1064.581,763.215,1087.571Z" transform="translate(-686.697 -1071.685)" fill="#163560"/>
        <path id="Path_63" data-name="Path 63" d="M769.01,1183.779c-.372-.155-21.453-9.611-23.919-8.8s-5.54,8.347-5.54,8.347l37.125,8.391C776.669,1191.718,773.75,1185.775,769.01,1183.779Z" transform="translate(-696.73 -1110.952)" fill="#6385db"/>
        <g id="Group_11" data-name="Group 11" transform="translate(74.291 13.284)">
          <path id="Path_64" data-name="Path 64" d="M919.579,1347.092,801.393,1458.368c-2.318,2.181-5.236,2.875-6.494,1.543l-3.991-4.238c-1.252-1.333-.384-4.208,1.934-6.389l118.185-111.276c2.318-2.181,5.236-2.875,6.494-1.543l3.991,4.239C922.764,1342.035,921.9,1344.911,919.579,1347.092Z" transform="translate(-790.335 -1185.413)" fill="#1f4d84"/>
          <path id="Path_65" data-name="Path 65" d="M853.254,1449.225l-51.861,48.83c-2.318,2.182-5.236,2.875-6.494,1.543l-3.991-4.238c-1.252-1.333-.384-4.208,1.934-6.389L844.7,1440.14Z" transform="translate(-790.335 -1225.101)" fill="#739af0"/>
          <path id="Path_66" data-name="Path 66" d="M952.6,1212.787a92.636,92.636,0,1,0,153.538-93.094c-.477-.471-.96-.942-1.456-1.4A92.637,92.637,0,0,0,952.6,1212.787Zm26.473-85.491a85.326,85.326,0,1,1,3.675,120.614A85.229,85.229,0,0,1,979.077,1127.3Z" transform="translate(-850.521 -1093.123)" fill="#1f4d84"/>
          <g id="Group_10" data-name="Group 10" transform="translate(105.381 7.319)" opacity="0.5">
            <path id="Path_67" data-name="Path 67" d="M1107.85,1248.715a85.328,85.328,0,1,1-3.675-120.6A84.989,84.989,0,0,1,1107.85,1248.715Z" transform="translate(-960.392 -1104.934)" fill="#b3cff9"/>
          </g>
        </g>
        <path id="Path_68" data-name="Path 68" d="M784.349,1356.716c-65.122-46.4-59.706-108.326-59.706-108.326,23.8,13.422,47.418,43.1,58.256,68.853C783.531,1331.991,784.07,1346.262,784.349,1356.716Z" transform="translate(-691.018 -1138.89)" fill="#6385db"/>
        <g id="Group_12" data-name="Group 12" transform="translate(32.265 80.766)">
          <path id="Path_69" data-name="Path 69" d="M919.988,1385.947c4.592-1.06,7.678-4.53,8.316-5.137,0,0,1.958.136-.322,4.313-.192.347-.614,1.246-.936,1.884a.4.4,0,0,0,.341.582c2.652.2,5.317-.849,10.417.217.706.149.911,1.834.88,2.553a6.51,6.51,0,0,1-1.37,4.449c-.824,1.084-3.117,2.249-8.229,4.306-1.946.781-7.517.192-12.734-1.6l-4.17-1.933,1.3-7.746,1.047.217C916.189,1388.4,918.253,1386.369,919.988,1385.947Z" transform="translate(-794.65 -1270.018)" fill="#ffb27d"/>
          <path id="Path_70" data-name="Path 70" d="M744.084,1202.02s-58.51,11.142,17.215,95.877c12.109,13.552,77.547,31.194,77.547,31.194s6.637-5.645,3.29-10.219c0,0-45.057-32.719-54.966-37.918-4.462-2.343-17.308-52.221-24.576-64.23A32.762,32.762,0,0,0,744.084,1202.02Z" transform="translate(-722.517 -1202.02)" fill="#739af0"/>
        </g>
        <path id="Path_71" data-name="Path 71" d="M939.31,1244.267a29.617,29.617,0,0,0,2.287-5.589c.372-1.927,2.782-7.554,3.774-8.546.4-.4,1.71.118,1.865,1.822a9.848,9.848,0,0,1-.942,3.7c-1.047,2.621-.874,6.172-1.239,7.356C944.15,1245.959,939.31,1244.267,939.31,1244.267Z" transform="translate(-772.703 -1131.898)" fill="#ffb27d"/>
      </g>
      <g id="Group_15" data-name="Group 15" transform="translate(312.379 258.627)">
        <g id="Group_14" data-name="Group 14">
          <path id="Path_72" data-name="Path 72" d="M976.331,999.313a3.528,3.528,0,0,0-.632,3.774c0,.006.006.013.012.019.911,2.516,3.916,5.329,7.411,8.136.446.359.843.688,1.19.992.093.081.18.161.266.242l.2.186c3.26,3.005,2.032,3.693,7.882,9.791,6.674,6.947,11.266,7.077,12.573,6.438,1.109-.539-1.14-4.22-3.631-8.366-.118-.2-.242-.4-.359-.6-.335-.551-.663-1.109-.992-1.661-2.919-4.982-2.169-7.318-1.475-14.736.564-6.023,9.388-33.661,9.388-33.661l-12.79-2.206s-3.861,22-8.105,25.395c-2.268,1.8-4.809,1.828-6.99,3.166-.155.093-.3.186-.452.285A16.742,16.742,0,0,0,976.331,999.313Z" transform="translate(-884.977 -721.922)" fill="#ffb27d"/>
          <path id="Path_73" data-name="Path 73" d="M976.331,1017.009a3.528,3.528,0,0,0-.632,3.774c0,.006.006.012.012.018,1.115,2.516,4.047,5.311,7.424,8.112.44.365.83.7,1.177,1.016.093.081.18.161.266.242l.2.186c3.26,3.005,2.032,3.693,7.882,9.791,6.674,6.947,11.266,7.077,12.573,6.439,1.109-.539-1.14-4.22-3.631-8.366a28.434,28.434,0,0,1-11.9-8.775c-3.873-4.945-6.5-11.241-9.134-15.114-.291-.056-.465-.087-.75-.142A17.351,17.351,0,0,0,976.331,1017.009Z" transform="translate(-884.977 -739.618)" fill="#233862"/>
          <path id="Path_74" data-name="Path 74" d="M1137.065,988.994c.787,3.947,6.42,3.29,12.7,1.76s4.8.291,13.744-.694,11.662-4.325,11.935-5.651c.248-1.184-4.177-1.6-8.917-2.144-.595-.068-1.2-.143-1.8-.217-5.354-.676-9.276-4.133-14.141-6.971-4.6-2.689-11.476-13.646-11.476-13.646l-12.276.967s6.439,9.785,8.929,14.036c1.463,2.5,1.388,5.813,1.2,8.366A15.877,15.877,0,0,0,1137.065,988.994Z" transform="translate(-942.565 -719.552)" fill="#ffb27d"/>
          <path id="Path_75" data-name="Path 75" d="M1155.933,1003.54c6.29-1.537,4.8.291,13.745-.694s11.663-4.325,11.935-5.651c.248-1.184-4.177-1.6-8.917-2.144l-.043.093a25.2,25.2,0,0,1-12.815,3.978c-6.073.149-12.5-1.6-16.694-1.531a15.912,15.912,0,0,0,.093,4.2C1144.017,1005.727,1149.65,1005.07,1155.933,1003.54Z" transform="translate(-948.73 -732.339)" fill="#233862"/>
          <path id="Path_76" data-name="Path 76" d="M1041.626,867.158l-11.483,30.866-14.99,40.3a24.26,24.26,0,0,1-7.957-.731,34.46,34.46,0,0,1-7.7-3.749s4.177-43.284,11.941-68.127c1.989-6.376,4.22-11.532,6.68-14.438C1030.156,837.079,1041.626,867.158,1041.626,867.158Z" transform="translate(-894.135 -676.211)" fill="#233862"/>
          <path id="Path_77" data-name="Path 77" d="M980.571,796.3c-6.531-2.107-23.573-.043-42.058,3.3a12.542,12.542,0,0,1-12.945-5.85h0l-46.513-3.65s-15.362,34.033-6.965,55.728c1.233,3.185,3.941,5.18,8.13,5.249h0s28.108.05,37.1.05c23.133.006,48.961-15.882,52.3-16.552,5.466-1.091,7.653,9.847,13.119,21.329s51.384,50.87,51.384,50.87,7.058.074,9.977-1.023a9.841,9.841,0,0,0,4.282-2.7S997.519,801.775,980.571,796.3Z" transform="translate(-844.723 -654.392)" fill="#2a4e96"/>
          <path id="Path_78" data-name="Path 78" d="M905.532,573.865a16.535,16.535,0,0,0-8.886-2.318,24.774,24.774,0,0,1-4.288-.26c-17.754-2.609-28.45,23.176-29.082,30.965-1.153,14.3-8.725,16.483-19.377,25.438-21.366,17.958-15.108,38.829-3.433,46.594,7.008,4.654,19.359.006,19.359.006.173.124,33.785-18.776,50.349-27.885C935.01,642.884,915.508,579.807,905.532,573.865Z" transform="translate(-829.582 -571.102)" fill="#233862"/>
          <path id="Path_79" data-name="Path 79" d="M923.225,664.1c.074.05-8.149,2.85-13.646.415-5.174-2.287-9.084-10.8-9.01-10.8,2.355-.105,4.939-2.163,6.928-15.659l1,.359,16.843,6.067s-1.221,5.4-2.014,10.553C922.661,659.348,922.3,663.488,923.225,664.1Z" transform="translate(-856.509 -596.564)" fill="#ffb27d"/>
          <path id="Path_80" data-name="Path 80" d="M930.213,644.7s-.675,2.919-1.655,8.366c-9.673-1.748-13.825-9.2-15.188-14.432Z" transform="translate(-861.378 -596.784)" fill="#ed975d"/>
          <path id="Path_81" data-name="Path 81" d="M931.679,632.195s-23.046-3.1-20.9-17.425.626-24.372,15.436-23S943.056,599.042,943.5,604,937.733,632.628,931.679,632.195Z" transform="translate(-860.34 -578.916)" fill="#ffb27d"/>
          <path id="Path_82" data-name="Path 82" d="M938.611,595.365s-14.761,12.71-24.793,13.732-13.837-2.2-13.837-2.2a39.169,39.169,0,0,0,9.481-12.833,7.045,7.045,0,0,1,5.819-4.158C922.443,589.292,936.027,589.014,938.611,595.365Z" transform="translate(-856.285 -578.14)" fill="#233862"/>
          <path id="Path_83" data-name="Path 83" d="M947.43,595.369s4.933,4.771,6.488,8.316c1.5,3.414,1.946,11.588.75,14.829,0,0,7.7-14.953,3.346-22.215C953.4,588.59,947.43,595.369,947.43,595.369Z" transform="translate(-874.331 -579.283)" fill="#233862"/>
          <path id="Path_84" data-name="Path 84" d="M930.469,707.341c-.713,46.656-.2,36.908-5.311,41.332-1.233,1.066-4.685,1.7-9.239,2-14.308.942-39.455-1.419-40.409-4.065-3.3-9.153-.967-11.991-3.712-26q-.428-2.231-1.06-4.858c-2.293-9.617-4.524-12.9,3.625-28.344,7.393-14,15.064-25.357,15.758-24.948,19.483,11.576,21.057,1.853,21.057,1.853S930.816,684.58,930.469,707.341Z" transform="translate(-844.357 -605.845)" fill="#739af0"/>
          <path id="Path_85" data-name="Path 85" d="M1030.143,909.224l-14.99,40.3a24.256,24.256,0,0,1-7.957-.731,34.458,34.458,0,0,1-7.7-3.749s4.177-43.285,11.941-68.128Z" transform="translate(-894.135 -687.411)" fill="#2a4e96"/>
          <path id="Path_86" data-name="Path 86" d="M937.3,665.44s20.047,3.408,22.4,12.04,10.082,61.032,10.082,61.032-5.658,5.521-10.361.812-14.8-49.029-14.8-49.029Z" transform="translate(-870.479 -606.981)" fill="#739af0"/>
          <path id="Path_87" data-name="Path 87" d="M917.881,774.438c-14.308.942-39.455-1.419-40.409-4.065-3.3-9.153-.967-11.991-3.712-26l6.909-19.427s-1.146,21.639,5.23,27.328,26.12,10.993,29.224,15.752A17.6,17.6,0,0,1,917.881,774.438Z" transform="translate(-846.313 -629.614)" fill="#6385db"/>
          <path id="Path_88" data-name="Path 88" d="M918.51,788.783s14.116-3.135,16.39-1.884,7.839,5.819,8.539,7.405-5.069-1.208-6.947-1.71c-1.214-.328-4.412.781-6,1.314-6.662,2.219-10.745,1.072-10.745,1.072Z" transform="translate(-863.332 -653.062)" fill="#ffb27d"/>
          <path id="Path_89" data-name="Path 89" d="M875.22,662.44S856.27,663.6,849.7,672.751c-9.239,12.877-27.582,67.768-17.085,75.093,11.824,8.248,53.813,2.175,53.813,2.175s1.4-6.531-.546-9.692-33.537-8.273-34.993-9.735,18.237-28.431,18.237-32.806S875.22,662.44,875.22,662.44Z" transform="translate(-829.468 -605.84)" fill="#739af0"/>
          <path id="Path_90" data-name="Path 90" d="M946.06,793.42s2.956,3.817,3.922,4.27a2.857,2.857,0,0,0,1.6.341l-1.989-3.588Z" transform="translate(-873.81 -655.654)" fill="#ffb27d"/>
          <path id="Path_91" data-name="Path 91" d="M944.96,787.08l8.595,4.177a1.528,1.528,0,0,1-1.425.552,20.529,20.529,0,0,1-3.731-1.029Z" transform="translate(-873.392 -653.243)" fill="#ffb27d"/>
        </g>
        <path id="Path_92" data-name="Path 92" d="M1008.316,802.941,918.5,802.91v1.983l89.017.031Z" transform="translate(-863.329 -659.264)" fill="#233862"/>
        <path id="Path_93" data-name="Path 93" d="M952.39,774.9l68.016.025,20.48-50.876-67.911-.025Z" transform="translate(-876.218 -629.26)" fill="#233862"/>
        <path id="Path_94" data-name="Path 94" d="M1030.4,763.1a2.358,2.358,0,0,0-2.312-3.241,4.646,4.646,0,0,0-4.17,3.235,2.357,2.357,0,0,0,2.312,3.241A4.629,4.629,0,0,0,1030.4,763.1Z" transform="translate(-903.372 -642.891)" fill="#fff"/>
      </g>
      <g id="Group_17" data-name="Group 17" transform="translate(819.873 594.956)">
        <path id="Path_95" data-name="Path 95" d="M1751.49,1115.021c-9.165-3.043-15.5.8-15.5.8-26.38,1.084-27.359,28.127-24.267,38.191,4.35,14.135-11.042,25.277,6.03,31,19.8,6.637,36.425-1.239,35.291,2.181C1815.67,1192.121,1772.33,1121.936,1751.49,1115.021Z" transform="translate(-1671.651 -1113.848)" fill="#163560"/>
        <path id="Path_96" data-name="Path 96" d="M1709.2,1293.572a68.858,68.858,0,0,1-7.052,10.665c-5.478,6.866-34.244-9.425-31.765-10.665s16.93-42.882,20.375-48.112,15.17-7.951,15.17-7.951Z" transform="translate(-1656.724 -1160.879)" fill="#739af0"/>
        <path id="Path_97" data-name="Path 97" d="M1872.106,1779.077s7.938,7.244,6.389,12.394-8.713,8.583-9.679,14.872-4.84,9.722-8.328,9.722h-16.62s-2.565-4.43,3.631-5.763,8.533-8.725,8.143-15.591a120.222,120.222,0,0,1,.583-16.012l13.168-3.049Z" transform="translate(-1722.559 -1365.546)" fill="#1f447f"/>
        <path id="Path_98" data-name="Path 98" d="M1753.56,1786.15s2.857,30.693-.626,32.409l-44.6-.093s0-5.15,7.164-6.29,19.749-5.342,21.881-14.68S1753.56,1786.15,1753.56,1786.15Z" transform="translate(-1671.211 -1369.539)" fill="#1c3154"/>
        <path id="Path_99" data-name="Path 99" d="M1787.227,1271.375a178.142,178.142,0,0,1,0,20.617c-.44,7.454-7.982,17.438-9.054,19.91-2.683,6.2-5.714,7.2-5.714,7.2l-23.417,5.738-8.235,2.014-25.971-7.758s-11.83-33.01-7.077-51.595a142.8,142.8,0,0,1,12-31.492s17.648-3.966,48.781-1.76Z" transform="translate(-1670.566 -1159.385)" fill="#739af0"/>
        <path id="Path_100" data-name="Path 100" d="M1812.892,1315.865c-.44,7.455-10.212,17.178-11.284,19.65-2.683,6.2-5.714,7.2-5.714,7.2l-23.418,5.738-4.226-12.121s34.218-8.991,28.716-40.663Z" transform="translate(-1694 -1182.999)" fill="#6385db"/>
        <path id="Path_101" data-name="Path 101" d="M1714.137,1379.67s-12.858,40.025-13.689,53.658,24.583,193.6,25.605,199.877c.96,5.918,8.316,9.692,8.316,9.692a11.116,11.116,0,0,0,8.2.632c6.692-1.89,8.812-4.152,8.812-4.152s10.008-128.354,3.817-174.2a725.275,725.275,0,0,1-6.265-85.5h-34.8Z" transform="translate(-1668.206 -1214.946)" fill="#233862"/>
        <path id="Path_102" data-name="Path 102" d="M1779.63,1377.75s19.619,26.318,21.447,44.115,2.869,80.286,6.767,97.63,18.212,50.727,18.212,104.825c0,0-1.487,3.1-6.079,4.753a50.946,50.946,0,0,1-5.348,1.481,8.418,8.418,0,0,1-9.406-4.462c-9.679-19.483-40.5-82.331-42.089-95.375-1.116-9.233-10.851-70.334-32.087-106.182-5.1-8.607,3.129-42.838,3.129-42.838Z" transform="translate(-1679.217 -1214.216)" fill="#2a4e96"/>
        <path id="Path_103" data-name="Path 103" d="M1718.782,1369.7s5.162,4.084,15.418,4.288c12.251.248,42.6-3.123,42.6-3.123a25.038,25.038,0,0,1,1.3,7.746s-37.075,9.351-58.553,1.363C1719.544,1379.98,1716.774,1374.769,1718.782,1369.7Z" transform="translate(-1674.909 -1211.154)" fill="#233862"/>
        <g id="Group_16" data-name="Group 16" transform="translate(50.764 160.74)">
          <path id="Path_104" data-name="Path 104" d="M1735.94,1385.894c-3.08,0-5.59-2.838-5.59-6.327s2.51-6.327,5.59-6.327,5.589,2.838,5.589,6.327S1739.026,1385.894,1735.94,1385.894Zm0-10.8c-2.063,0-3.737,2.008-3.737,4.474s1.679,4.474,3.737,4.474,3.737-2.008,3.737-4.474S1738,1375.093,1735.94,1375.093Z" transform="translate(-1730.35 -1373.24)" fill="#fff"/>
        </g>
        <path id="Path_105" data-name="Path 105" d="M1731.566,1372.684l-55.721.521-27.414-64.434,55.721-.521Z" transform="translate(-1648.43 -1187.783)" fill="#b5453c"/>
        <path id="Path_106" data-name="Path 106" d="M1753.289,1358.982l-4.084-5.02s-2.764-2.466-4.771-2.881-6.24-2.863-6.649-2.175,3.253,5.6,3.253,5.6l.186.025c-4.208,3.166-14.829.372-16.136,1.661-1.587,1.562,2.187,4.945,4.214,6.848s7.82,5.063,12.338,3.662c3.3-1.029,8.5-2.076,8.5-2.076Z" transform="translate(-1677.44 -1203.199)" fill="#ffb27d"/>
        <path id="Path_107" data-name="Path 107" d="M1654.97,1325.792s3.5-3.979,5.732-2.07-.583,11.3-2.708,10.349S1653.749,1326.957,1654.97,1325.792Z" transform="translate(-1650.781 -1193.471)" fill="#ffb27d"/>
        <path id="Path_108" data-name="Path 108" d="M1789.185,1234.67s15.95,1.76,27.4,22.556c9.029,16.4,24.459,46.637,18.634,55.176-2.553,3.749-27.061,17.091-74.324,9.469,0,0,.743-5.967,4.555-8.737,0,0,39.777-12.771,39.709-15.312-.13-4.8-5.373-8.961-27.594-31.182C1771.524,1260.6,1789.185,1234.67,1789.185,1234.67Z" transform="translate(-1691.201 -1159.8)" fill="#739af0"/>
        <path id="Path_109" data-name="Path 109" d="M1771.953,1221.061c.545-.738-.155-3.08-1.035-7.443a81.831,81.831,0,0,1-2.113-16.948l-1.177.2-19.768,3.328s.453,5.286.465,10.268v.124c.024,4.325-1.165,10.863.291,11.712C1756.108,1226.687,1769.846,1223.893,1771.953,1221.061Z" transform="translate(-1686.245 -1145.347)" fill="#ffb27d"/>
        <path id="Path_110" data-name="Path 110" d="M1747.87,1200.318s.39,7.455.409,12.431c11.062-.266,16.967-11.006,19.365-15.759Z" transform="translate(-1686.249 -1145.469)" fill="#e8945b"/>
        <path id="Path_111" data-name="Path 111" d="M1737.61,1188.645s25.915-3.693,23.368-19.8-.917-27.427-17.574-25.748-18.888,8.329-19.346,13.912S1730.806,1189.191,1737.61,1188.645Z" transform="translate(-1677.185 -1124.91)" fill="#ffb27d"/>
        <path id="Path_112" data-name="Path 112" d="M1736.2,1142.85s10.089,17.76,21.391,18.826,15.554-2.6,15.554-2.6a31.15,31.15,0,0,1-12.958-16.57S1740.1,1133.01,1736.2,1142.85Z" transform="translate(-1681.811 -1123.181)" fill="#163560"/>
        <path id="Path_113" data-name="Path 113" d="M1732.169,1146.144s-4.932,2.8-6.488,6.971a26.318,26.318,0,0,0-1.14,15.337s-7.38-11.991-2.54-20.208C1727.131,1139.526,1732.169,1146.144,1732.169,1146.144Z" transform="translate(-1675.785 -1125.216)" fill="#163560"/>
      </g>
      <path id="Path_114" data-name="Path 114" d="M1778.044,1841.769H341.417a1.8,1.8,0,0,1-1.8-1.8v-1.035a1.8,1.8,0,0,1,1.8-1.8H1778.05a1.8,1.8,0,0,1,1.8,1.8v1.035A1.812,1.812,0,0,1,1778.044,1841.769Z" transform="translate(-330.789 -793.976)" fill="#233862"/>
    </g>
  </g>
</svg>
