<svg xmlns="http://www.w3.org/2000/svg" width="132" height="19" viewBox="0 0 132 19">
  <g id="_5star" data-name="5star" transform="translate(-82 -1157)">
    <g id="Page-1" transform="translate(82 1156.5)">
      <g id="Core" transform="translate(0 0.5)">
        <g id="star">
          <path id="Shape" d="M10,15.273,16.18,19l-1.635-7.029L20,7.244l-7.191-.617L10,0,7.191,6.627,0,7.244l5.455,4.727L3.82,19Z" fill="#5283da" fill-rule="evenodd"/>
        </g>
      </g>
    </g>
    <g id="Page-1-2" data-name="Page-1" transform="translate(110 1156.5)">
      <g id="Core-2" data-name="Core" transform="translate(0 0.5)">
        <g id="star-2" data-name="star">
          <path id="Shape-2" data-name="Shape" d="M10,15.273,16.18,19l-1.635-7.029L20,7.244l-7.191-.617L10,0,7.191,6.627,0,7.244l5.455,4.727L3.82,19Z" fill="#5283da" fill-rule="evenodd"/>
        </g>
      </g>
    </g>
    <g id="Page-1-3" data-name="Page-1" transform="translate(138 1156.5)">
      <g id="Core-3" data-name="Core" transform="translate(0 0.5)">
        <g id="star-3" data-name="star">
          <path id="Shape-3" data-name="Shape" d="M10,15.273,16.18,19l-1.635-7.029L20,7.244l-7.191-.617L10,0,7.191,6.627,0,7.244l5.455,4.727L3.82,19Z" fill="#5283da" fill-rule="evenodd"/>
        </g>
      </g>
    </g>
    <g id="Page-1-4" data-name="Page-1" transform="translate(166 1156.5)">
      <g id="Core-4" data-name="Core" transform="translate(0 0.5)">
        <g id="star-4" data-name="star">
          <path id="Shape-4" data-name="Shape" d="M10,15.273,16.18,19l-1.635-7.029L20,7.244l-7.191-.617L10,0,7.191,6.627,0,7.244l5.455,4.727L3.82,19Z" fill="#5283da" fill-rule="evenodd"/>
        </g>
      </g>
    </g>
    <g id="Page-1-5" data-name="Page-1" transform="translate(194 1150.5)">
      <g id="Core-5" data-name="Core" transform="translate(0 0.5)">
        <g id="star-5" data-name="star">
          <path id="Shape-5" data-name="Shape" d="M10,15.273,16.18,19l-1.635-7.029L20,7.244l-7.191-.617L10,0,7.191,6.627,0,7.244l5.455,4.727L3.82,19Z" transform="translate(0 6)" fill="#5283da" fill-rule="evenodd"/>
        </g>
      </g>
    </g>
  </g>
</svg>
