<svg xmlns="http://www.w3.org/2000/svg" width="54.898" height="47.056" viewBox="0 0 54.898 47.056">
  <g id="_211677_image_icon" data-name="211677_image_icon" transform="translate(-32 -64)" opacity="0.31">
    <path id="Path_16425" data-name="Path 16425" d="M323.893,135.786A3.893,3.893,0,1,0,320,131.893,3.894,3.894,0,0,0,323.893,135.786Z" transform="translate(-250.72 -56.169)"/>
    <path id="Path_16426" data-name="Path 16426" d="M83.467,64H35.431A3.441,3.441,0,0,0,32,67.468v40.12a3.441,3.441,0,0,0,3.431,3.468H83.467a3.441,3.441,0,0,0,3.431-3.468V67.468A3.441,3.441,0,0,0,83.467,64ZM70.833,88.226a2.1,2.1,0,0,0-1.569-.76,2.421,2.421,0,0,0-1.569.7L65.4,90.1A2.3,2.3,0,0,1,64,90.677a2.028,2.028,0,0,1-1.348-.5c-.123-.11-.343-.319-.527-.5L55.528,82.54a2.7,2.7,0,0,0-2.046-.919,2.783,2.783,0,0,0-2.059.956l-16.5,18.7V68.355a1.616,1.616,0,0,1,1.605-1.434H82.359a1.555,1.555,0,0,1,1.581,1.47l.037,32.91Z"/>
  </g>
</svg>
