<svg xmlns="http://www.w3.org/2000/svg" width="130.779" height="19.892" viewBox="0 0 130.779 19.892">
  <g id="nostar" transform="translate(-82.222 -1157.107)">
    <g id="_172558_star_icon" data-name="172558_star_icon" transform="translate(194.133 1158.132)">
      <rect id="Rectangle_33" data-name="Rectangle 33" width="19" height="19" transform="translate(-0.132 -0.132)" fill="none"/>
      <path id="Path_18559" data-name="Path 18559" d="M11.419,1.454l2.627,6.865,7.263.4-5.646,4.627,1.875,7.105-6.117-4-6.117,4,1.875-7.105L1.531,8.714l7.264-.4ZM17.371,10l-4.379-.238L11.419,5.652,9.848,9.763,5.469,10l3.406,2.79L7.75,17.055l3.671-2.4,3.671,2.4-1.125-4.263Z" transform="translate(-2.442 -2.478)" fill="#5283da"/>
    </g>
    <g id="_172558_star_icon-2" data-name="172558_star_icon" transform="translate(83.133 1158.132)">
      <rect id="Rectangle_33-2" data-name="Rectangle 33" width="19" height="19" transform="translate(-0.132 -0.132)" fill="none"/>
      <path id="Path_18559-2" data-name="Path 18559" d="M11.419,1.454l2.627,6.865,7.263.4-5.646,4.627,1.875,7.105-6.117-4-6.117,4,1.875-7.105L1.531,8.714l7.264-.4ZM17.371,10l-4.379-.238L11.419,5.652,9.848,9.763,5.469,10l3.406,2.79L7.75,17.055l3.671-2.4,3.671,2.4-1.125-4.263Z" transform="translate(-2.442 -2.478)" fill="#5283da"/>
    </g>
    <g id="_172558_star_icon-3" data-name="172558_star_icon" transform="translate(167.133 1158.132)">
      <rect id="Rectangle_33-3" data-name="Rectangle 33" width="19" height="19" transform="translate(-0.132 -0.132)" fill="none"/>
      <path id="Path_18559-3" data-name="Path 18559" d="M11.419,1.454l2.627,6.865,7.263.4-5.646,4.627,1.875,7.105-6.117-4-6.117,4,1.875-7.105L1.531,8.714l7.264-.4ZM17.371,10l-4.379-.238L11.419,5.652,9.848,9.763,5.469,10l3.406,2.79L7.75,17.055l3.671-2.4,3.671,2.4-1.125-4.263Z" transform="translate(-2.442 -2.478)" fill="#5283da"/>
    </g>
    <g id="_172558_star_icon-4" data-name="172558_star_icon" transform="translate(139.133 1158.132)">
      <rect id="Rectangle_33-4" data-name="Rectangle 33" width="19" height="19" transform="translate(-0.132 -0.132)" fill="none"/>
      <path id="Path_18559-4" data-name="Path 18559" d="M11.419,1.454l2.627,6.865,7.263.4-5.646,4.627,1.875,7.105-6.117-4-6.117,4,1.875-7.105L1.531,8.714l7.264-.4ZM17.371,10l-4.379-.238L11.419,5.652,9.848,9.763,5.469,10l3.406,2.79L7.75,17.055l3.671-2.4,3.671,2.4-1.125-4.263Z" transform="translate(-2.442 -2.478)" fill="#5283da"/>
    </g>
    <g id="_172558_star_icon-5" data-name="172558_star_icon" transform="translate(111.133 1158.132)">
      <rect id="Rectangle_33-5" data-name="Rectangle 33" width="19" height="19" transform="translate(-0.132 -0.132)" fill="none"/>
      <path id="Path_18559-5" data-name="Path 18559" d="M11.419,1.454l2.627,6.865,7.263.4-5.646,4.627,1.875,7.105-6.117-4-6.117,4,1.875-7.105L1.531,8.714l7.264-.4ZM17.371,10l-4.379-.238L11.419,5.652,9.848,9.763,5.469,10l3.406,2.79L7.75,17.055l3.671-2.4,3.671,2.4-1.125-4.263Z" transform="translate(-2.442 -2.478)" fill="#5283da"/>
    </g>
  </g>
</svg>
