<svg xmlns="http://www.w3.org/2000/svg" width="82" height="181" viewBox="0 0 82 181">
  <g id="ornament" transform="translate(-0.222 -0.022)" opacity="0.2">
    <g id="row_01" data-name="row 01" transform="translate(0 0)">
      <ellipse id="Ellipse_5" data-name="Ellipse 5" cx="4" cy="4.5" rx="4" ry="4.5" transform="translate(0.222 0.022)" fill="#c3bfb3"/>
      <circle id="Ellipse_6" data-name="Ellipse 6" cx="4" cy="4" r="4" transform="translate(0.222 25.022)" fill="#c3bfb3"/>
      <circle id="Ellipse_7" data-name="Ellipse 7" cx="4" cy="4" r="4" transform="translate(0.222 49.022)" fill="#c3bfb3"/>
      <circle id="Ellipse_8" data-name="Ellipse 8" cx="4" cy="4" r="4" transform="translate(0.222 74.022)" fill="#c3bfb3"/>
      <ellipse id="Ellipse_9" data-name="Ellipse 9" cx="4" cy="4.5" rx="4" ry="4.5" transform="translate(0.222 98.022)" fill="#c3bfb3"/>
      <circle id="Ellipse_10" data-name="Ellipse 10" cx="4" cy="4" r="4" transform="translate(0.222 122.022)" fill="#c3bfb3"/>
      <circle id="Ellipse_11" data-name="Ellipse 11" cx="4" cy="4" r="4" transform="translate(0.222 148.022)" fill="#c3bfb3"/>
      <ellipse id="Ellipse_12" data-name="Ellipse 12" cx="4" cy="4.5" rx="4" ry="4.5" transform="translate(0.222 172.022)" fill="#c3bfb3"/>
    </g>
    <g id="row_02" data-name="row 02" transform="translate(24.666 0)">
      <ellipse id="Ellipse_5-2" data-name="Ellipse 5" cx="4" cy="4.5" rx="4" ry="4.5" transform="translate(-0.444 0.022)" fill="#c3bfb3"/>
      <circle id="Ellipse_6-2" data-name="Ellipse 6" cx="4" cy="4" r="4" transform="translate(-0.444 25.022)" fill="#c3bfb3"/>
      <circle id="Ellipse_7-2" data-name="Ellipse 7" cx="4" cy="4" r="4" transform="translate(-0.444 49.022)" fill="#c3bfb3"/>
      <circle id="Ellipse_8-2" data-name="Ellipse 8" cx="4" cy="4" r="4" transform="translate(-0.444 74.022)" fill="#c3bfb3"/>
      <ellipse id="Ellipse_9-2" data-name="Ellipse 9" cx="4" cy="4.5" rx="4" ry="4.5" transform="translate(-0.444 98.022)" fill="#c3bfb3"/>
      <circle id="Ellipse_10-2" data-name="Ellipse 10" cx="4" cy="4" r="4" transform="translate(-0.444 122.022)" fill="#c3bfb3"/>
      <circle id="Ellipse_11-2" data-name="Ellipse 11" cx="4" cy="4" r="4" transform="translate(-0.444 148.022)" fill="#c3bfb3"/>
      <ellipse id="Ellipse_12-2" data-name="Ellipse 12" cx="4" cy="4.5" rx="4" ry="4.5" transform="translate(-0.444 172.022)" fill="#c3bfb3"/>
    </g>
    <g id="row_03" data-name="row 03" transform="translate(49.332 0)">
      <ellipse id="Ellipse_5-3" data-name="Ellipse 5" cx="4" cy="4.5" rx="4" ry="4.5" transform="translate(-0.11 0.022)" fill="#c3bfb3"/>
      <circle id="Ellipse_6-3" data-name="Ellipse 6" cx="4" cy="4" r="4" transform="translate(-0.11 25.022)" fill="#c3bfb3"/>
      <circle id="Ellipse_7-3" data-name="Ellipse 7" cx="4" cy="4" r="4" transform="translate(-0.11 49.022)" fill="#c3bfb3"/>
      <circle id="Ellipse_8-3" data-name="Ellipse 8" cx="4" cy="4" r="4" transform="translate(-0.11 74.022)" fill="#c3bfb3"/>
      <ellipse id="Ellipse_9-3" data-name="Ellipse 9" cx="4" cy="4.5" rx="4" ry="4.5" transform="translate(-0.11 98.022)" fill="#c3bfb3"/>
      <circle id="Ellipse_10-3" data-name="Ellipse 10" cx="4" cy="4" r="4" transform="translate(-0.11 122.022)" fill="#c3bfb3"/>
      <circle id="Ellipse_11-3" data-name="Ellipse 11" cx="4" cy="4" r="4" transform="translate(-0.11 148.022)" fill="#c3bfb3"/>
      <ellipse id="Ellipse_12-3" data-name="Ellipse 12" cx="4" cy="4.5" rx="4" ry="4.5" transform="translate(-0.11 172.022)" fill="#c3bfb3"/>
    </g>
    <g id="row_04" data-name="row 04" transform="translate(73.012 0)">
      <circle id="Ellipse_9-4" data-name="Ellipse 9" cx="4.5" cy="4.5" r="4.5" transform="translate(0.211 0.022)" fill="#c3bfb3"/>
      <ellipse id="Ellipse_10-4" data-name="Ellipse 10" cx="4.5" cy="4" rx="4.5" ry="4" transform="translate(0.211 25.022)" fill="#c3bfb3"/>
      <ellipse id="Ellipse_11-4" data-name="Ellipse 11" cx="4.5" cy="4" rx="4.5" ry="4" transform="translate(0.211 49.022)" fill="#c3bfb3"/>
      <ellipse id="Ellipse_12-4" data-name="Ellipse 12" cx="4.5" cy="4" rx="4.5" ry="4" transform="translate(0.211 74.022)" fill="#c3bfb3"/>
      <circle id="Ellipse_5-4" data-name="Ellipse 5" cx="4.5" cy="4.5" r="4.5" transform="translate(0.211 98.022)" fill="#c3bfb3"/>
      <ellipse id="Ellipse_6-4" data-name="Ellipse 6" cx="4.5" cy="4" rx="4.5" ry="4" transform="translate(0.211 122.022)" fill="#c3bfb3"/>
      <ellipse id="Ellipse_7-4" data-name="Ellipse 7" cx="4.5" cy="4" rx="4.5" ry="4" transform="translate(0.211 148.022)" fill="#c3bfb3"/>
      <circle id="Ellipse_8-4" data-name="Ellipse 8" cx="4.5" cy="4.5" r="4.5" transform="translate(0.211 172.022)" fill="#c3bfb3"/>
    </g>
  </g>
</svg>
