<?xml version="1.0" encoding="utf-8"?><svg version="1.1" id="Layer_1" xmlns="http://www.w3.org/2000/svg" xmlns:xlink="http://www.w3.org/1999/xlink" x="0px" y="0px" viewBox="0 0 122.88 122.88" style="enable-background:new 0 0 122.88 122.88" xml:space="preserve"><g><path d="M91.74,102.54c-7.47,5.37-15.26,8.88-23.4,10.23c-4.69,0.77-9.43,0.82-14.23,0.09v7.51c0.01,2.46-2.07,3.32-4.23,1.65 c-0.82-0.63-1.75-1.71-2.5-2.47l-15.92-16.13c-1.81-2.11-1.29-4.29,1.3-6.52l16.12-16.24c2.08-2.35,5.13-2.05,5.33,1.3l0.1,7.92 c3.57,1.01,7.03,1.2,10.38,0.64c4.59-0.76,9.21-2.91,13.87-6.26L91.74,102.54L91.74,102.54z M113.02,68.77h7.35 c2.46-0.01,3.32,2.07,1.65,4.23c-0.63,0.82-1.71,1.75-2.47,2.5l-16.13,15.92c-2.11,1.81-4.29,1.29-6.52-1.3L80.66,73.99 c-2.35-2.08-2.05-5.13,1.3-5.33l8.1-0.11c0.97-3.51,1.14-6.91,0.59-10.21c-0.76-4.59-2.91-9.22-6.26-13.87l18.27-13.15 c5.37,7.47,8.88,15.26,10.23,23.4C113.67,59.36,113.72,64.04,113.02,68.77L113.02,68.77z M68.77,10.02V2.51 C68.76,0.05,70.84-0.8,73,0.86c0.82,0.63,1.75,1.71,2.5,2.47l15.92,16.13c1.81,2.11,1.29,4.29-1.3,6.52L73.99,42.22 c-2.08,2.35-5.13,2.05-5.33-1.3l-0.1-7.96c-3.46-0.93-6.82-1.1-10.07-0.56c-4.59,0.76-9.22,2.91-13.87,6.26L31.45,20.39 c7.47-5.37,15.26-8.88,23.4-10.23C59.45,9.4,64.08,9.33,68.77,10.02L68.77,10.02z M20.52,91.6c-5.37-7.47-8.88-15.26-10.23-23.4 c-0.77-4.65-0.82-9.34-0.11-14.09H2.51c-2.46,0.01-3.32-2.07-1.65-4.23c0.63-0.82,1.71-1.75,2.47-2.5l16.13-15.92 c2.11-1.81,4.29-1.29,6.52,1.3l16.24,16.12c2.35,2.08,2.05,5.13-1.3,5.33l-7.78,0.1c-0.98,3.52-1.15,6.94-0.61,10.25 c0.76,4.59,2.91,9.22,6.26,13.87L20.52,91.6L20.52,91.6z"/></g></svg>