<svg xmlns="http://www.w3.org/2000/svg" xmlns:xlink="http://www.w3.org/1999/xlink" width="20" height="22.766" viewBox="0 0 20 22.766">
  <defs>
    <clipPath id="clip-path">
      <path id="Path_18565" data-name="Path 18565" d="M203.816,226.069l-8.923,5.15a1.077,1.077,0,0,0-.539.933v10.307a1.077,1.077,0,0,0,.539.933l8.923,5.154a1.08,1.08,0,0,0,1.078,0l8.922-5.154a1.079,1.079,0,0,0,.538-.933V232.152a1.077,1.077,0,0,0-.54-.933l-8.92-5.15a1.085,1.085,0,0,0-1.08,0" transform="translate(-194.354 -225.925)"/>
    </clipPath>
    <linearGradient id="linear-gradient" x1="-0.847" y1="-1.034" x2="-0.838" y2="-1.034" gradientUnits="objectBoundingBox">
      <stop offset="0.3" stop-color="#3e863d"/>
      <stop offset="0.5" stop-color="#55934f"/>
      <stop offset="0.8" stop-color="#5aad45"/>
    </linearGradient>
    <clipPath id="clip-path-2">
      <path id="Path_18567" data-name="Path 18567" d="M195.4,243.226a1.079,1.079,0,0,0,.317.279l7.646,4.421,1.274.733a1.08,1.08,0,0,0,.621.141,1.1,1.1,0,0,0,.212-.039l9.4-17.23a1.067,1.067,0,0,0-.25-.2l-5.836-3.374-3.085-1.777a1.125,1.125,0,0,0-.279-.112Zm0,0" transform="translate(-195.398 -226.069)"/>
    </clipPath>
    <linearGradient id="linear-gradient-2" x1="-0.742" y1="-0.932" x2="-0.737" y2="-0.932" gradientUnits="objectBoundingBox">
      <stop offset="0.57" stop-color="#3e863d"/>
      <stop offset="0.72" stop-color="#619857"/>
      <stop offset="1" stop-color="#76ac64"/>
    </linearGradient>
  </defs>
  <g id="Node.js_logo" transform="translate(-116.048 -61.909)">
    <g id="Group_226" data-name="Group 226" transform="translate(116.048 61.909)" clip-path="url(#clip-path)">
      <path id="Path_18564" data-name="Path 18564" d="M189.812,200.927,164.669,188.6l-12.891,26.3,25.142,12.324Zm0,0" transform="translate(-160.795 -196.507)" fill="url(#linear-gradient)"/>
    </g>
    <g id="Group_227" data-name="Group 227" transform="translate(116.278 61.941)" clip-path="url(#clip-path-2)">
      <path id="Path_18566" data-name="Path 18566" d="M144.07,199.446,161.8,223.472l23.454-17.346L167.523,182.1Zm0,0" transform="translate(-154.929 -191.412)" fill="url(#linear-gradient-2)"/>
    </g>
  </g>
</svg>
